<svg width="40" height="39" viewBox="0 0 40 39" fill="none" xmlns="http://www.w3.org/2000/svg">
<path d="M22.3502 19.5001L32.8502 9.27881C33.1641 8.97281 33.3404 8.5578 33.3404 8.12506C33.3404 7.69232 33.1641 7.2773 32.8502 6.97131C32.5364 6.66531 32.1107 6.49341 31.6669 6.49341C31.2231 6.49341 30.7974 6.66531 30.4836 6.97131L20.0002 17.2088L9.51689 6.97131C9.20305 6.66531 8.77739 6.49341 8.33356 6.49341C7.88972 6.49341 7.46406 6.66531 7.15022 6.97131C6.83638 7.2773 6.66007 7.69232 6.66007 8.12506C6.66007 8.5578 6.83638 8.97281 7.15022 9.27881L17.6502 19.5001L7.15022 29.7213C6.99401 29.8724 6.87002 30.0521 6.78541 30.2501C6.70079 30.4481 6.65723 30.6605 6.65723 30.8751C6.65723 31.0896 6.70079 31.302 6.78541 31.5C6.87002 31.698 6.99401 31.8777 7.15022 32.0288C7.30516 32.1811 7.4895 32.302 7.6926 32.3845C7.89569 32.467 8.11354 32.5095 8.33356 32.5095C8.55358 32.5095 8.77142 32.467 8.97452 32.3845C9.17762 32.302 9.36195 32.1811 9.51689 32.0288L20.0002 21.7913L30.4836 32.0288C30.6385 32.1811 30.8228 32.302 31.0259 32.3845C31.229 32.467 31.4469 32.5095 31.6669 32.5095C31.8869 32.5095 32.1048 32.467 32.3079 32.3845C32.511 32.302 32.6953 32.1811 32.8502 32.0288C33.0064 31.8777 33.1304 31.698 33.215 31.5C33.2997 31.302 33.3432 31.0896 33.3432 30.8751C33.3432 30.6605 33.2997 30.4481 33.215 30.2501C33.1304 30.0521 33.0064 29.8724 32.8502 29.7213L22.3502 19.5001Z" fill="#C4C4C4"/>
</svg>
