<svg width="32" height="32" viewBox="0 0 32 32" fill="none" xmlns="http://www.w3.org/2000/svg">
<path d="M18.6667 10.6667H20.0001C20.3537 10.6667 20.6928 10.5263 20.9429 10.2762C21.1929 10.0262 21.3334 9.68704 21.3334 9.33342C21.3334 8.97979 21.1929 8.64065 20.9429 8.39061C20.6928 8.14056 20.3537 8.00008 20.0001 8.00008H18.6667C18.3131 8.00008 17.974 8.14056 17.7239 8.39061C17.4739 8.64065 17.3334 8.97979 17.3334 9.33342C17.3334 9.68704 17.4739 10.0262 17.7239 10.2762C17.974 10.5263 18.3131 10.6667 18.6667 10.6667ZM18.6667 16.0001H20.0001C20.3537 16.0001 20.6928 15.8596 20.9429 15.6096C21.1929 15.3595 21.3334 15.0204 21.3334 14.6667C21.3334 14.3131 21.1929 13.974 20.9429 13.7239C20.6928 13.4739 20.3537 13.3334 20.0001 13.3334H18.6667C18.3131 13.3334 17.974 13.4739 17.7239 13.7239C17.4739 13.974 17.3334 14.3131 17.3334 14.6667C17.3334 15.0204 17.4739 15.3595 17.7239 15.6096C17.974 15.8596 18.3131 16.0001 18.6667 16.0001ZM12.0001 10.6667H13.3334C13.687 10.6667 14.0262 10.5263 14.2762 10.2762C14.5263 10.0262 14.6667 9.68704 14.6667 9.33342C14.6667 8.97979 14.5263 8.64065 14.2762 8.39061C14.0262 8.14056 13.687 8.00008 13.3334 8.00008H12.0001C11.6465 8.00008 11.3073 8.14056 11.0573 8.39061C10.8072 8.64065 10.6667 8.97979 10.6667 9.33342C10.6667 9.68704 10.8072 10.0262 11.0573 10.2762C11.3073 10.5263 11.6465 10.6667 12.0001 10.6667ZM12.0001 16.0001H13.3334C13.687 16.0001 14.0262 15.8596 14.2762 15.6096C14.5263 15.3595 14.6667 15.0204 14.6667 14.6667C14.6667 14.3131 14.5263 13.974 14.2762 13.7239C14.0262 13.4739 13.687 13.3334 13.3334 13.3334H12.0001C11.6465 13.3334 11.3073 13.4739 11.0573 13.7239C10.8072 13.974 10.6667 14.3131 10.6667 14.6667C10.6667 15.0204 10.8072 15.3595 11.0573 15.6096C11.3073 15.8596 11.6465 16.0001 12.0001 16.0001ZM28.0001 26.6667H26.6667V4.00008C26.6667 3.64646 26.5263 3.30732 26.2762 3.05727C26.0262 2.80722 25.687 2.66675 25.3334 2.66675H6.66675C6.31313 2.66675 5.97399 2.80722 5.72394 3.05727C5.47389 3.30732 5.33341 3.64646 5.33341 4.00008V26.6667H4.00008C3.64646 26.6667 3.30732 26.8072 3.05727 27.0573C2.80722 27.3073 2.66675 27.6465 2.66675 28.0001C2.66675 28.3537 2.80722 28.6928 3.05727 28.9429C3.30732 29.1929 3.64646 29.3334 4.00008 29.3334H28.0001C28.3537 29.3334 28.6928 29.1929 28.9429 28.9429C29.1929 28.6928 29.3334 28.3537 29.3334 28.0001C29.3334 27.6465 29.1929 27.3073 28.9429 27.0573C28.6928 26.8072 28.3537 26.6667 28.0001 26.6667ZM17.3334 26.6667H14.6667V21.3334H17.3334V26.6667ZM24.0001 26.6667H20.0001V20.0001C20.0001 19.6465 19.8596 19.3073 19.6096 19.0573C19.3595 18.8072 19.0204 18.6667 18.6667 18.6667H13.3334C12.9798 18.6667 12.6407 18.8072 12.3906 19.0573C12.1406 19.3073 12.0001 19.6465 12.0001 20.0001V26.6667H8.00008V5.33341H24.0001V26.6667Z" fill="url(#paint0_linear_30_248)"/>
<defs>
<linearGradient id="paint0_linear_30_248" x1="-0.988829" y1="9.49144" x2="32.8852" y2="2.94695" gradientUnits="userSpaceOnUse">
<stop stop-color="#8225C4"/>
<stop offset="0.317708" stop-color="#B516A8"/>
<stop offset="0.625" stop-color="#D80C95"/>
<stop offset="1" stop-color="#F50081"/>
</linearGradient>
</defs>
</svg>
