<svg width="32" height="32" viewBox="0 0 32 32" fill="none" xmlns="http://www.w3.org/2000/svg">
<path d="M20.0001 14.6667H17.3334V9.33342C17.3334 8.97979 17.1929 8.64065 16.9429 8.39061C16.6928 8.14056 16.3537 8.00008 16.0001 8.00008C15.6465 8.00008 15.3073 8.14056 15.0573 8.39061C14.8072 8.64065 14.6668 8.97979 14.6668 9.33342V16.0001C14.6668 16.3537 14.8072 16.6928 15.0573 16.9429C15.3073 17.1929 15.6465 17.3334 16.0001 17.3334H20.0001C20.3537 17.3334 20.6928 17.1929 20.9429 16.9429C21.1929 16.6928 21.3334 16.3537 21.3334 16.0001C21.3334 15.6465 21.1929 15.3073 20.9429 15.0573C20.6928 14.8072 20.3537 14.6667 20.0001 14.6667ZM16.0001 2.66675C13.363 2.66675 10.7851 3.44873 8.59248 4.91382C6.39983 6.37891 4.69086 8.46129 3.68169 10.8976C2.67253 13.334 2.40848 16.0149 2.92295 18.6013C3.43742 21.1877 4.7073 23.5635 6.572 25.4282C8.4367 27.2929 10.8125 28.5627 13.3989 29.0772C15.9853 29.5917 18.6662 29.3276 21.1025 28.3185C23.5389 27.3093 25.6213 25.6003 27.0863 23.4077C28.5514 21.215 29.3334 18.6372 29.3334 16.0001C29.3295 12.4651 27.9235 9.07597 25.4238 6.57633C22.9242 4.0767 19.5351 2.67068 16.0001 2.66675ZM16.0001 26.6667C13.8904 26.6667 11.8281 26.0412 10.074 24.8691C8.31988 23.697 6.95271 22.0311 6.14537 20.082C5.33804 18.133 5.1268 15.9882 5.53838 13.9191C5.94995 11.85 6.96586 9.94937 8.45761 8.45761C9.94938 6.96585 11.85 5.94995 13.9191 5.53837C15.9883 5.1268 18.133 5.33803 20.082 6.14537C22.0311 6.9527 23.697 8.31987 24.8691 10.074C26.0412 11.8281 26.6668 13.8904 26.6668 16.0001C26.6635 18.8281 25.5387 21.5393 23.539 23.539C21.5393 25.5387 18.8281 26.6635 16.0001 26.6667Z" fill="url(#paint0_linear_30_238)"/>
<defs>
<linearGradient id="paint0_linear_30_238" x1="-0.988829" y1="9.49144" x2="32.8852" y2="2.94696" gradientUnits="userSpaceOnUse">
<stop stop-color="#8225C4"/>
<stop offset="0.317708" stop-color="#B516A8"/>
<stop offset="0.625" stop-color="#D80C95"/>
<stop offset="1" stop-color="#F50081"/>
</linearGradient>
</defs>
</svg>
