<svg width="32" height="32" viewBox="0 0 32 32" fill="none" xmlns="http://www.w3.org/2000/svg">
<path d="M25.9201 17.3332C25.6268 17.3332 25.3201 17.2399 25.0268 17.1732C24.4328 17.0423 23.849 16.8686 23.2801 16.6532C22.6616 16.4282 21.9817 16.4399 21.3712 16.686C20.7608 16.9322 20.2629 17.3954 19.9735 17.9866L19.6801 18.5866C18.3815 17.8641 17.1881 16.9669 16.1335 15.9199C15.0865 14.8653 14.1892 13.6719 13.4668 12.3732L14.0268 11.9999C14.618 11.7105 15.0812 11.2126 15.3273 10.6022C15.5735 9.99171 15.5852 9.31179 15.3601 8.69324C15.1484 8.12314 14.9747 7.53964 14.8401 6.94657C14.7735 6.65324 14.7201 6.34657 14.6801 6.03991C14.5182 5.10073 14.0263 4.25023 13.293 3.64156C12.5596 3.03289 11.6331 2.70605 10.6801 2.71991H6.68013C6.10551 2.71451 5.53647 2.83299 5.01175 3.06728C4.48703 3.30157 4.01895 3.64617 3.63937 4.07761C3.2598 4.50906 2.97765 5.01723 2.81212 5.56752C2.64659 6.11782 2.60157 6.69732 2.68013 7.26657C3.39045 12.8524 5.94151 18.0424 9.93034 22.0168C13.9192 25.9911 19.1184 28.5233 24.7068 29.2132H25.2135C26.1967 29.2147 27.146 28.8539 27.8801 28.1999C28.302 27.8226 28.6389 27.3601 28.8688 26.843C29.0986 26.3259 29.2161 25.7658 29.2135 25.1999V21.1999C29.1971 20.2738 28.8599 19.382 28.2593 18.6768C27.6586 17.9716 26.8319 17.4967 25.9201 17.3332ZM26.5868 25.3332C26.5866 25.5226 26.546 25.7096 26.4678 25.8821C26.3897 26.0545 26.2757 26.2083 26.1335 26.3332C25.9845 26.4619 25.8103 26.558 25.622 26.6154C25.4337 26.6728 25.2355 26.6902 25.0401 26.6666C20.0467 26.0263 15.4085 23.7419 11.8571 20.1736C8.30573 16.6054 6.04335 11.9564 5.4268 6.95991C5.40558 6.7646 5.42418 6.56701 5.48147 6.37909C5.53876 6.19117 5.63356 6.01682 5.76013 5.86657C5.88508 5.72435 6.03888 5.61036 6.21131 5.5322C6.38373 5.45403 6.57082 5.41348 6.76013 5.41324H10.7601C11.0702 5.40634 11.373 5.50775 11.6163 5.7C11.8597 5.89225 12.0284 6.16333 12.0935 6.46657C12.1468 6.83102 12.2135 7.19102 12.2935 7.54657C12.4475 8.24943 12.6525 8.94015 12.9068 9.61324L11.0401 10.4799C10.8805 10.5531 10.737 10.6572 10.6177 10.786C10.4984 10.9149 10.4057 11.0661 10.345 11.2308C10.2843 11.3956 10.2568 11.5707 10.2639 11.7462C10.2711 11.9217 10.3129 12.094 10.3868 12.2532C12.3057 16.3636 15.6098 19.6676 19.7201 21.5866C20.0448 21.7199 20.4089 21.7199 20.7335 21.5866C20.8998 21.5271 21.0526 21.4352 21.183 21.3162C21.3135 21.1971 21.419 21.0534 21.4935 20.8932L22.3201 19.0266C23.0094 19.2731 23.7129 19.4779 24.4268 19.6399C24.7824 19.7199 25.1424 19.7866 25.5068 19.8399C25.81 19.905 26.0811 20.0737 26.2734 20.317C26.4656 20.5604 26.567 20.8632 26.5601 21.1732L26.5868 25.3332Z" fill="url(#paint0_linear_60_4700)"/>
<defs>
<linearGradient id="paint0_linear_60_4700" x1="-0.999875" y1="9.49992" x2="32.7454" y2="2.96131" gradientUnits="userSpaceOnUse">
<stop stop-color="#8225C4"/>
<stop offset="0.317708" stop-color="#B516A8"/>
<stop offset="0.625" stop-color="#D80C95"/>
<stop offset="1" stop-color="#F50081"/>
</linearGradient>
</defs>
</svg>
