<svg width="56" height="50" viewBox="0 0 56 50" fill="none" xmlns="http://www.w3.org/2000/svg">
<path d="M27.7777 19.4443C23.261 19.4443 19.4443 23.261 19.4443 27.7777C19.4443 32.2943 23.261 36.111 27.7777 36.111C32.2943 36.111 36.111 32.2943 36.111 27.7777C36.111 23.261 32.2943 19.4443 27.7777 19.4443Z" fill="white"/>
<path d="M50 8.33334H42.8167L35.2972 0.813892C35.0397 0.55544 34.7336 0.350474 34.3966 0.210793C34.0595 0.0711115 33.6982 -0.000526247 33.3333 2.9102e-06H22.2222C21.8574 -0.000526247 21.496 0.0711115 21.159 0.210793C20.8219 0.350474 20.5159 0.55544 20.2583 0.813892L12.7389 8.33334H5.55556C2.49167 8.33334 0 10.825 0 13.8889V44.4444C0 47.5083 2.49167 50 5.55556 50H50C53.0639 50 55.5556 47.5083 55.5556 44.4444V13.8889C55.5556 10.825 53.0639 8.33334 50 8.33334ZM27.7778 41.6667C20.25 41.6667 13.8889 35.3056 13.8889 27.7778C13.8889 20.25 20.25 13.8889 27.7778 13.8889C35.3056 13.8889 41.6667 20.25 41.6667 27.7778C41.6667 35.3056 35.3056 41.6667 27.7778 41.6667Z" fill="white"/>
</svg>
