<svg width="32" height="32" viewBox="0 0 32 32" fill="none" xmlns="http://www.w3.org/2000/svg">
<path d="M21.9999 6.66668C20.826 6.66575 19.6738 6.98374 18.6666 7.58668C17.9363 5.9104 16.6538 4.53487 15.0326 3.68915C13.4115 2.84344 11.5496 2.57857 9.75693 2.93866C7.96428 3.29875 6.34906 4.26207 5.18026 5.6682C4.01146 7.07432 3.35961 8.8384 3.33325 10.6667V16C3.33517 17.8892 4.00558 19.7167 5.22577 21.159C6.44595 22.6012 8.13717 23.5652 9.99992 23.88V28C9.99992 28.3536 10.1404 28.6928 10.3904 28.9428C10.6405 29.1929 10.9796 29.3333 11.3333 29.3333C11.6869 29.3333 12.026 29.1929 12.2761 28.9428C12.5261 28.6928 12.6666 28.3536 12.6666 28V23.88C14.0249 23.6443 15.3006 23.0661 16.3733 22.2C16.8493 22.964 17.4751 23.6237 18.213 24.1393C18.9508 24.6549 19.7855 25.0157 20.6666 25.2V28C20.6666 28.3536 20.8071 28.6928 21.0571 28.9428C21.3072 29.1929 21.6463 29.3333 21.9999 29.3333C22.3535 29.3333 22.6927 29.1929 22.9427 28.9428C23.1928 28.6928 23.3333 28.3536 23.3333 28V25.2C24.8391 24.8926 26.1924 24.0744 27.1643 22.8839C28.1362 21.6933 28.6669 20.2035 28.6666 18.6667V13.3333C28.6666 11.5652 27.9642 9.86954 26.714 8.6193C25.4637 7.36906 23.768 6.66668 21.9999 6.66668ZM15.3333 13.3333V18.6667C15.346 18.9213 15.3727 19.175 15.4133 19.4267C14.7002 20.276 13.7401 20.8818 12.6666 21.16V17.3333C12.6666 16.9797 12.5261 16.6406 12.2761 16.3905C12.026 16.1405 11.6869 16 11.3333 16C10.9796 16 10.6405 16.1405 10.3904 16.3905C10.1404 16.6406 9.99992 16.9797 9.99992 17.3333V21.1467C8.85795 20.8518 7.84593 20.1868 7.12217 19.2555C6.39841 18.3243 6.00375 17.1794 5.99992 16V10.6667C5.99644 9.6101 6.30687 8.5763 6.89183 7.69641C7.47679 6.81653 8.30992 6.13022 9.28552 5.72455C10.2611 5.31888 11.3352 5.21214 12.3716 5.41785C13.408 5.62357 14.3599 6.13247 15.1066 6.88001C15.8284 7.61153 16.3198 8.53868 16.5199 9.54668C15.7492 10.6592 15.3353 11.9799 15.3333 13.3333ZM25.9999 18.6667C25.9976 19.4919 25.7401 20.2963 25.2627 20.9694C24.7853 21.6426 24.1113 22.1516 23.3333 22.4267V17.3333C23.3333 16.9797 23.1928 16.6406 22.9427 16.3905C22.6927 16.1405 22.3535 16 21.9999 16C21.6463 16 21.3072 16.1405 21.0571 16.3905C20.8071 16.6406 20.6666 16.9797 20.6666 17.3333V22.4267C19.8885 22.1516 19.2146 21.6426 18.7372 20.9694C18.2598 20.2963 18.0022 19.4919 17.9999 18.6667V13.3333C17.9999 12.2725 18.4213 11.2551 19.1715 10.5049C19.9216 9.75477 20.9391 9.33335 21.9999 9.33335C23.0608 9.33335 24.0782 9.75477 24.8283 10.5049C25.5785 11.2551 25.9999 12.2725 25.9999 13.3333V18.6667Z" fill="url(#paint0_linear_30_251)"/>
<defs>
<linearGradient id="paint0_linear_30_251" x1="-0.139545" y1="9.57716" x2="32.1449" y2="3.62592" gradientUnits="userSpaceOnUse">
<stop stop-color="#8225C4"/>
<stop offset="0.317708" stop-color="#B516A8"/>
<stop offset="0.625" stop-color="#D80C95"/>
<stop offset="1" stop-color="#F50081"/>
</linearGradient>
</defs>
</svg>
