<svg width="32" height="32" viewBox="0 0 32 32" fill="none" xmlns="http://www.w3.org/2000/svg">
<path d="M16.3999 16.2934C17.1114 15.6776 17.682 14.9159 18.0731 14.0601C18.4642 13.2043 18.6666 12.2744 18.6666 11.3334C18.6666 9.5653 17.9642 7.86961 16.714 6.61937C15.4637 5.36913 13.768 4.66675 11.9999 4.66675C10.2318 4.66675 8.53612 5.36913 7.28587 6.61937C6.03563 7.86961 5.33325 9.5653 5.33325 11.3334C5.33324 12.2744 5.53565 13.2043 5.92675 14.0601C6.31785 14.9159 6.88848 15.6776 7.59992 16.2934C5.73344 17.1386 4.14987 18.5035 3.03856 20.2248C1.92725 21.9462 1.33521 23.9512 1.33325 26.0001C1.33325 26.3537 1.47373 26.6928 1.72378 26.9429C1.97382 27.1929 2.31296 27.3334 2.66659 27.3334C3.02021 27.3334 3.35935 27.1929 3.60939 26.9429C3.85944 26.6928 3.99992 26.3537 3.99992 26.0001C3.99992 23.8783 4.84277 21.8435 6.34306 20.3432C7.84336 18.8429 9.87819 18.0001 11.9999 18.0001C14.1217 18.0001 16.1565 18.8429 17.6568 20.3432C19.1571 21.8435 19.9999 23.8783 19.9999 26.0001C19.9999 26.3537 20.1404 26.6928 20.3904 26.9429C20.6405 27.1929 20.9796 27.3334 21.3333 27.3334C21.6869 27.3334 22.026 27.1929 22.2761 26.9429C22.5261 26.6928 22.6666 26.3537 22.6666 26.0001C22.6646 23.9512 22.0726 21.9462 20.9613 20.2248C19.85 18.5035 18.2664 17.1386 16.3999 16.2934ZM11.9999 15.3334C11.2088 15.3334 10.4354 15.0988 9.77764 14.6593C9.11984 14.2198 8.60715 13.5951 8.3044 12.8641C8.00165 12.1332 7.92244 11.329 8.07678 10.5531C8.23112 9.77713 8.61208 9.0644 9.17149 8.50499C9.7309 7.94558 10.4436 7.56462 11.2196 7.41027C11.9955 7.25593 12.7997 7.33515 13.5307 7.6379C14.2616 7.94065 14.8863 8.45334 15.3258 9.11113C15.7653 9.76893 15.9999 10.5423 15.9999 11.3334C15.9999 12.3943 15.5785 13.4117 14.8283 14.1618C14.0782 14.912 13.0608 15.3334 11.9999 15.3334ZM24.9866 15.7601C25.8399 14.7992 26.3973 13.6122 26.5917 12.3419C26.786 11.0716 26.6092 9.77218 26.0823 8.60008C25.5554 7.42798 24.701 6.43314 23.6219 5.73531C22.5428 5.03748 21.285 4.6664 19.9999 4.66675C19.6463 4.66675 19.3072 4.80722 19.0571 5.05727C18.8071 5.30732 18.6666 5.64646 18.6666 6.00008C18.6666 6.3537 18.8071 6.69284 19.0571 6.94289C19.3072 7.19294 19.6463 7.33341 19.9999 7.33341C21.0608 7.33341 22.0782 7.75484 22.8283 8.50499C23.5785 9.25513 23.9999 10.2725 23.9999 11.3334C23.998 12.0337 23.8123 12.7213 23.4613 13.3273C23.1104 13.9333 22.6064 14.4366 21.9999 14.7867C21.8022 14.9008 21.6371 15.0636 21.5204 15.2597C21.4037 15.4558 21.3392 15.6786 21.3333 15.9067C21.3277 16.1331 21.3798 16.3571 21.4848 16.5578C21.5898 16.7584 21.7441 16.929 21.9333 17.0534L22.4533 17.4001L22.6266 17.4934C24.2338 18.2557 25.5897 19.4614 26.5346 20.9685C27.4794 22.4756 27.974 24.2213 27.9599 26.0001C27.9599 26.3537 28.1004 26.6928 28.3504 26.9429C28.6005 27.1929 28.9396 27.3334 29.2933 27.3334C29.6469 27.3334 29.986 27.1929 30.2361 26.9429C30.4861 26.6928 30.6266 26.3537 30.6266 26.0001C30.6375 23.954 30.125 21.9391 29.1379 20.1468C28.1507 18.3546 26.7217 16.8445 24.9866 15.7601Z" fill="url(#paint0_linear_30_243)"/>
<defs>
<linearGradient id="paint0_linear_30_243" x1="-2.68242" y1="10.4677" x2="33.6521" y2="1.39554" gradientUnits="userSpaceOnUse">
<stop stop-color="#8225C4"/>
<stop offset="0.317708" stop-color="#B516A8"/>
<stop offset="0.625" stop-color="#D80C95"/>
<stop offset="1" stop-color="#F50081"/>
</linearGradient>
</defs>
</svg>
