<svg width="55" height="50" viewBox="0 0 55 50" fill="none" xmlns="http://www.w3.org/2000/svg">
<path d="M49.5 0H5.5C2.46675 0 0 2.49167 0 5.55556V44.4444C0 47.5083 2.46675 50 5.5 50H49.5C52.5332 50 55 47.5083 55 44.4444V5.55556C55 2.49167 52.5332 0 49.5 0ZM49.5027 16.6667C49.5 16.6667 49.5 16.6667 49.5027 16.6667H48.224L40.8897 5.55556H49.5L49.5027 16.6667ZM37.125 33.3333L22 41.6667V25L37.125 33.3333ZM34.474 16.6667L27.1398 5.55556H34.2788L41.613 16.6667H34.474ZM27.863 16.6667H20.724L13.3897 5.55556H20.5288L27.863 16.6667ZM5.5 5.55556H6.77875L14.113 16.6667H5.5V5.55556Z" fill="url(#paint0_linear_30_442)"/>
<defs>
<linearGradient id="paint0_linear_30_442" x1="-7.53963" y1="12.7963" x2="61.8015" y2="-1.94015" gradientUnits="userSpaceOnUse">
<stop stop-color="#8225C4"/>
<stop offset="0.317708" stop-color="#B516A8"/>
<stop offset="0.625" stop-color="#D80C95"/>
<stop offset="1" stop-color="#F50081"/>
</linearGradient>
</defs>
</svg>
