<svg width="253" height="140" viewBox="0 0 253 140" fill="none" xmlns="http://www.w3.org/2000/svg">
<g opacity="0.48">
<path d="M1 94.2161L40.3954 70.7979L76.1791 86.7145L112.899 57.9473L151.893 70.7979L183.597 45.1619L207.609 50.0542L225.266 17.7645L248.342 15.09L252.89 1" stroke="url(#paint0_linear_59_384)"/>
<path d="M1.10986 138.987L40.5053 128.179L76.2889 135.525L113.009 122.248L152.003 128.179L183.707 116.347L207.719 118.605L225.376 103.702L248.452 102.468L253 95.9646" stroke="url(#paint1_linear_59_384)"/>
<path d="M1.10986 96.4902L40.5053 73.6432L76.2889 89.1715L113.009 61.1059L152.003 73.6432L183.707 48.6324L207.719 53.4054L225.376 21.9033L248.452 19.294L253 5.54761" stroke="url(#paint2_linear_59_384)"/>
<path d="M1.10986 98.5889L40.5053 76.3569L76.2889 91.4672L113.009 64.1573L152.003 76.3569L183.707 52.0195L207.719 56.6641L225.376 26.01L248.452 23.471L253 10.0947" stroke="url(#paint3_linear_59_384)"/>
<path d="M1.10986 100.687L40.5053 79.07L76.2889 93.7622L113.009 67.2078L152.003 79.07L183.707 55.4059L207.719 59.922L225.376 30.1161L248.452 27.6473L253 14.6411" stroke="url(#paint4_linear_59_384)"/>
<path d="M1.10986 102.786L40.5053 81.7402L76.2889 96.0442L113.009 70.1915L152.003 81.7402L183.707 58.7014L207.719 63.0981L225.376 34.0798L248.452 31.6762L253 19.0137" stroke="url(#paint5_linear_59_384)"/>
<path d="M1.10986 104.884L40.5053 84.4539L76.2889 98.3398L113.009 73.2428L152.003 84.4539L183.707 62.0885L207.719 66.3567L225.376 38.1865L248.452 35.8532L253 23.5608" stroke="url(#paint6_linear_59_384)"/>
<path d="M1.10986 106.983L40.5053 87.1677L76.2889 100.636L113.009 76.2941L152.003 87.1677L183.707 65.4756L207.719 69.6154L225.376 42.2933L248.452 40.0303L253 28.1079" stroke="url(#paint7_linear_59_384)"/>
<path d="M1.10986 109.256L40.5053 90.0122L76.2889 103.092L113.009 79.452L152.003 90.0122L183.707 68.9454L207.719 72.9658L225.376 46.4313L248.452 44.2335L253 32.6548" stroke="url(#paint8_linear_59_384)"/>
<path d="M1.10986 111.355L40.5053 92.726L76.2889 105.388L113.009 82.5033L152.003 92.726L183.707 72.3326L207.719 76.2244L225.376 50.5381L248.452 48.4105L253 37.2019" stroke="url(#paint9_linear_59_384)"/>
<path d="M1.10986 113.454L40.5053 95.4398L76.2889 107.683L113.009 85.5546L152.003 95.4398L183.707 75.7197L207.719 79.4831L225.376 54.6448L248.452 52.5875L253 41.749" stroke="url(#paint10_linear_59_384)"/>
<path d="M1.10986 115.552L40.5053 98.1097L76.2889 109.965L113.009 88.538L152.003 98.1097L183.707 79.0149L207.719 82.6589L225.376 58.6083L248.452 56.6162L253 46.1213" stroke="url(#paint11_linear_59_384)"/>
<path d="M1.10986 117.652L40.5053 100.824L76.2889 112.261L113.009 91.5898L152.003 100.824L183.707 82.4025L207.719 85.9181L225.376 62.7155L248.452 60.7937L253 50.6689" stroke="url(#paint12_linear_59_384)"/>
<path d="M1.10986 119.75L40.5053 103.537L76.2889 114.557L113.009 94.6409L152.003 103.537L183.707 85.7894L207.719 89.1765L225.376 66.822L248.452 64.9705L253 55.2158" stroke="url(#paint13_linear_59_384)"/>
<path d="M1.10986 122.023L40.5053 106.382L76.2889 117.013L113.009 97.7988L152.003 106.382L183.707 89.2592L207.719 92.5269L225.376 70.96L248.452 69.1737L253 59.7627" stroke="url(#paint14_linear_59_384)"/>
<path d="M1.10986 124.123L40.5053 109.096L76.2889 119.309L113.009 100.851L152.003 109.096L183.707 92.6468L207.719 95.786L225.376 75.0673L248.452 73.3512L253 64.3103" stroke="url(#paint15_linear_59_384)"/>
<path d="M1.10986 126.221L40.5053 111.81L76.2889 121.605L113.009 103.902L152.003 111.81L183.707 96.034L207.719 99.0447L225.376 79.1741L248.452 77.5282L253 68.8574" stroke="url(#paint16_linear_59_384)"/>
<path d="M1.10986 128.319L40.5053 114.479L76.2889 123.886L113.009 106.885L152.003 114.479L183.707 99.3284L207.719 102.22L225.376 83.1368L248.452 81.5561L253 73.229" stroke="url(#paint17_linear_59_384)"/>
<path d="M1.10986 130.418L40.5053 117.193L76.2889 126.182L113.009 109.936L152.003 117.193L183.707 102.716L207.719 105.479L225.376 87.244L248.452 85.7337L253 77.7766" stroke="url(#paint18_linear_59_384)"/>
<path d="M1.10986 132.517L40.5053 119.907L76.2889 128.478L113.009 112.988L152.003 119.907L183.707 106.103L207.719 108.738L225.376 91.3508L248.452 89.9107L253 82.3237" stroke="url(#paint19_linear_59_384)"/>
<path d="M1.10986 134.791L40.5053 122.752L76.2889 130.934L113.009 116.146L152.003 122.752L183.707 109.573L207.719 112.088L225.376 95.489L248.452 94.1141L253 86.8708" stroke="url(#paint20_linear_59_384)"/>
<path d="M1.10986 136.889L40.5053 125.465L76.2889 133.229L113.009 119.197L152.003 125.465L183.707 112.96L207.719 115.346L225.376 99.5953L248.452 98.2907L253 91.4175" stroke="url(#paint21_linear_59_384)"/>
</g>
<defs>
<linearGradient id="paint0_linear_59_384" x1="-33.5301" y1="24.8564" x2="227.293" y2="-111.312" gradientUnits="userSpaceOnUse">
<stop stop-color="#8225C4"/>
<stop offset="0.317708" stop-color="#B516A8"/>
<stop offset="0.625" stop-color="#D80C95"/>
<stop offset="1" stop-color="#F50081"/>
</linearGradient>
<linearGradient id="paint1_linear_59_384" x1="-33.4203" y1="106.975" x2="112.187" y2="-57.7289" gradientUnits="userSpaceOnUse">
<stop stop-color="#8225C4"/>
<stop offset="0.317708" stop-color="#B516A8"/>
<stop offset="0.625" stop-color="#D80C95"/>
<stop offset="1" stop-color="#F50081"/>
</linearGradient>
<linearGradient id="paint2_linear_59_384" x1="-33.4203" y1="28.8222" x2="224.606" y2="-109.253" gradientUnits="userSpaceOnUse">
<stop stop-color="#8225C4"/>
<stop offset="0.317708" stop-color="#B516A8"/>
<stop offset="0.625" stop-color="#D80C95"/>
<stop offset="1" stop-color="#F50081"/>
</linearGradient>
<linearGradient id="paint3_linear_59_384" x1="-33.4203" y1="32.7427" x2="221.423" y2="-107.403" gradientUnits="userSpaceOnUse">
<stop stop-color="#8225C4"/>
<stop offset="0.317708" stop-color="#B516A8"/>
<stop offset="0.625" stop-color="#D80C95"/>
<stop offset="1" stop-color="#F50081"/>
</linearGradient>
<linearGradient id="paint4_linear_59_384" x1="-33.4203" y1="36.6624" x2="218.053" y2="-105.565" gradientUnits="userSpaceOnUse">
<stop stop-color="#8225C4"/>
<stop offset="0.317708" stop-color="#B516A8"/>
<stop offset="0.625" stop-color="#D80C95"/>
<stop offset="1" stop-color="#F50081"/>
</linearGradient>
<linearGradient id="paint5_linear_59_384" x1="-33.4203" y1="40.4531" x2="214.744" y2="-103.712" gradientUnits="userSpaceOnUse">
<stop stop-color="#8225C4"/>
<stop offset="0.317708" stop-color="#B516A8"/>
<stop offset="0.625" stop-color="#D80C95"/>
<stop offset="1" stop-color="#F50081"/>
</linearGradient>
<linearGradient id="paint6_linear_59_384" x1="-33.4203" y1="44.3736" x2="210.975" y2="-101.876" gradientUnits="userSpaceOnUse">
<stop stop-color="#8225C4"/>
<stop offset="0.317708" stop-color="#B516A8"/>
<stop offset="0.625" stop-color="#D80C95"/>
<stop offset="1" stop-color="#F50081"/>
</linearGradient>
<linearGradient id="paint7_linear_59_384" x1="-33.4203" y1="48.2941" x2="206.978" y2="-100.03" gradientUnits="userSpaceOnUse">
<stop stop-color="#8225C4"/>
<stop offset="0.317708" stop-color="#B516A8"/>
<stop offset="0.625" stop-color="#D80C95"/>
<stop offset="1" stop-color="#F50081"/>
</linearGradient>
<linearGradient id="paint8_linear_59_384" x1="-33.4203" y1="52.2591" x2="203.05" y2="-97.9717" gradientUnits="userSpaceOnUse">
<stop stop-color="#8225C4"/>
<stop offset="0.317708" stop-color="#B516A8"/>
<stop offset="0.625" stop-color="#D80C95"/>
<stop offset="1" stop-color="#F50081"/>
</linearGradient>
<linearGradient id="paint9_linear_59_384" x1="-33.4203" y1="56.1796" x2="198.572" y2="-96.0728" gradientUnits="userSpaceOnUse">
<stop stop-color="#8225C4"/>
<stop offset="0.317708" stop-color="#B516A8"/>
<stop offset="0.625" stop-color="#D80C95"/>
<stop offset="1" stop-color="#F50081"/>
</linearGradient>
<linearGradient id="paint10_linear_59_384" x1="-33.4203" y1="60.1001" x2="193.821" y2="-94.1262" gradientUnits="userSpaceOnUse">
<stop stop-color="#8225C4"/>
<stop offset="0.317708" stop-color="#B516A8"/>
<stop offset="0.625" stop-color="#D80C95"/>
<stop offset="1" stop-color="#F50081"/>
</linearGradient>
<linearGradient id="paint11_linear_59_384" x1="-33.4203" y1="63.8906" x2="189.149" y2="-92.1113" gradientUnits="userSpaceOnUse">
<stop stop-color="#8225C4"/>
<stop offset="0.317708" stop-color="#B516A8"/>
<stop offset="0.625" stop-color="#D80C95"/>
<stop offset="1" stop-color="#F50081"/>
</linearGradient>
<linearGradient id="paint12_linear_59_384" x1="-33.4203" y1="67.8116" x2="183.821" y2="-90.022" gradientUnits="userSpaceOnUse">
<stop stop-color="#8225C4"/>
<stop offset="0.317708" stop-color="#B516A8"/>
<stop offset="0.625" stop-color="#D80C95"/>
<stop offset="1" stop-color="#F50081"/>
</linearGradient>
<linearGradient id="paint13_linear_59_384" x1="-33.4203" y1="71.7318" x2="178.169" y2="-87.8277" gradientUnits="userSpaceOnUse">
<stop stop-color="#8225C4"/>
<stop offset="0.317708" stop-color="#B516A8"/>
<stop offset="0.625" stop-color="#D80C95"/>
<stop offset="1" stop-color="#F50081"/>
</linearGradient>
<linearGradient id="paint14_linear_59_384" x1="-33.4203" y1="75.6968" x2="172.614" y2="-85.3476" gradientUnits="userSpaceOnUse">
<stop stop-color="#8225C4"/>
<stop offset="0.317708" stop-color="#B516A8"/>
<stop offset="0.625" stop-color="#D80C95"/>
<stop offset="1" stop-color="#F50081"/>
</linearGradient>
<linearGradient id="paint15_linear_59_384" x1="-33.4203" y1="79.6178" x2="166.286" y2="-82.8706" gradientUnits="userSpaceOnUse">
<stop stop-color="#8225C4"/>
<stop offset="0.317708" stop-color="#B516A8"/>
<stop offset="0.625" stop-color="#D80C95"/>
<stop offset="1" stop-color="#F50081"/>
</linearGradient>
<linearGradient id="paint16_linear_59_384" x1="-33.4203" y1="83.5383" x2="159.584" y2="-80.1993" gradientUnits="userSpaceOnUse">
<stop stop-color="#8225C4"/>
<stop offset="0.317708" stop-color="#B516A8"/>
<stop offset="0.625" stop-color="#D80C95"/>
<stop offset="1" stop-color="#F50081"/>
</linearGradient>
<linearGradient id="paint17_linear_59_384" x1="-33.4203" y1="87.328" x2="153.011" y2="-77.3606" gradientUnits="userSpaceOnUse">
<stop stop-color="#8225C4"/>
<stop offset="0.317708" stop-color="#B516A8"/>
<stop offset="0.625" stop-color="#D80C95"/>
<stop offset="1" stop-color="#F50081"/>
</linearGradient>
<linearGradient id="paint18_linear_59_384" x1="-33.4203" y1="91.249" x2="145.544" y2="-74.1969" gradientUnits="userSpaceOnUse">
<stop stop-color="#8225C4"/>
<stop offset="0.317708" stop-color="#B516A8"/>
<stop offset="0.625" stop-color="#D80C95"/>
<stop offset="1" stop-color="#F50081"/>
</linearGradient>
<linearGradient id="paint19_linear_59_384" x1="-33.4203" y1="95.1695" x2="137.665" y2="-70.7077" gradientUnits="userSpaceOnUse">
<stop stop-color="#8225C4"/>
<stop offset="0.317708" stop-color="#B516A8"/>
<stop offset="0.625" stop-color="#D80C95"/>
<stop offset="1" stop-color="#F50081"/>
</linearGradient>
<linearGradient id="paint20_linear_59_384" x1="-33.4203" y1="99.1348" x2="129.974" y2="-66.802" gradientUnits="userSpaceOnUse">
<stop stop-color="#8225C4"/>
<stop offset="0.317708" stop-color="#B516A8"/>
<stop offset="0.625" stop-color="#D80C95"/>
<stop offset="1" stop-color="#F50081"/>
</linearGradient>
<linearGradient id="paint21_linear_59_384" x1="-33.4203" y1="103.055" x2="121.287" y2="-62.52" gradientUnits="userSpaceOnUse">
<stop stop-color="#8225C4"/>
<stop offset="0.317708" stop-color="#B516A8"/>
<stop offset="0.625" stop-color="#D80C95"/>
<stop offset="1" stop-color="#F50081"/>
</linearGradient>
</defs>
</svg>
