<svg width="1920" height="392" viewBox="0 0 1920 392" fill="none" xmlns="http://www.w3.org/2000/svg">
<g opacity="0.48">
<path d="M0 264.46L300.156 198.272L572.793 243.258L852.565 161.952L1149.66 198.272L1391.21 125.816L1574.16 139.644L1708.7 48.3823L1884.51 40.8232L1919.16 1" stroke="url(#paint0_linear_30_151)"/>
<path d="M0.837402 391L300.993 360.452L573.631 381.214L853.402 343.688L1150.5 360.452L1392.05 327.01L1575 333.392L1709.53 291.272L1885.35 287.783L1920 269.403" stroke="url(#paint1_linear_30_151)"/>
<path d="M0.837402 270.886L300.993 206.312L573.631 250.201L853.402 170.878L1150.5 206.312L1392.05 135.624L1575 149.114L1709.53 60.0782L1885.35 52.7035L1920 13.8516" stroke="url(#paint2_linear_30_151)"/>
<path d="M0.837402 276.818L300.993 213.983L573.631 256.69L853.402 179.502L1150.5 213.983L1392.05 145.197L1575 158.324L1709.53 71.6856L1885.35 64.5095L1920 26.7036" stroke="url(#paint3_linear_30_151)"/>
<path d="M0.837402 282.749L300.993 221.653L573.631 263.178L853.402 188.126L1150.5 221.653L1392.05 154.77L1575 167.534L1709.53 83.2926L1885.35 76.3151L1920 39.5552" stroke="url(#paint4_linear_30_151)"/>
<path d="M0.837402 288.681L300.993 229.199L573.631 269.627L853.402 196.558L1150.5 229.199L1392.05 164.083L1575 176.51L1709.53 94.4944L1885.35 87.7012L1920 51.9126" stroke="url(#paint5_linear_30_151)"/>
<path d="M0.837402 294.612L300.993 236.869L573.631 276.115L853.402 205.182L1150.5 236.869L1392.05 173.657L1575 185.72L1709.53 106.102L1885.35 99.5069L1920 64.7643" stroke="url(#paint6_linear_30_151)"/>
<path d="M0.837402 300.544L300.993 244.539L573.631 282.604L853.402 213.807L1150.5 244.539L1392.05 183.23L1575 194.93L1709.53 117.709L1885.35 111.313L1920 77.6162" stroke="url(#paint7_linear_30_151)"/>
<path d="M0.837402 306.97L300.993 252.579L573.631 289.546L853.402 222.732L1150.5 252.579L1392.05 193.037L1575 204.4L1709.53 129.405L1885.35 123.193L1920 90.4677" stroke="url(#paint8_linear_30_151)"/>
<path d="M0.837402 312.901L300.993 260.249L573.631 296.035L853.402 231.356L1150.5 260.249L1392.05 202.61L1575 213.61L1709.53 141.012L1885.35 134.999L1920 103.319" stroke="url(#paint9_linear_30_151)"/>
<path d="M0.837402 318.833L300.993 267.919L573.631 302.523L853.402 239.98L1150.5 267.919L1392.05 212.183L1575 222.82L1709.53 152.619L1885.35 146.804L1920 116.171" stroke="url(#paint10_linear_30_151)"/>
<path d="M0.837402 324.764L300.993 275.465L573.631 308.972L853.402 248.412L1150.5 275.465L1392.05 221.497L1575 231.796L1709.53 163.821L1885.35 158.19L1920 128.528" stroke="url(#paint11_linear_30_151)"/>
<path d="M0.837402 330.696L300.993 283.135L573.631 315.461L853.402 257.036L1150.5 283.135L1392.05 231.07L1575 241.006L1709.53 175.428L1885.35 169.996L1920 141.38" stroke="url(#paint12_linear_30_151)"/>
<path d="M0.837402 336.627L300.993 290.805L573.631 321.949L853.402 265.66L1150.5 290.805L1392.05 240.643L1575 250.216L1709.53 187.035L1885.35 181.802L1920 154.232" stroke="url(#paint13_linear_30_151)"/>
<path d="M0.837402 343.053L300.993 298.845L573.631 328.892L853.402 274.586L1150.5 298.845L1392.05 250.45L1575 259.686L1709.53 198.731L1885.35 193.682L1920 167.083" stroke="url(#paint14_linear_30_151)"/>
<path d="M0.837402 348.985L300.993 306.516L573.631 335.381L853.402 283.211L1150.5 306.516L1392.05 260.024L1575 268.896L1709.53 210.338L1885.35 205.488L1920 179.936" stroke="url(#paint15_linear_30_151)"/>
<path d="M0.837402 354.916L300.993 314.186L573.631 341.869L853.402 291.835L1150.5 314.186L1392.05 269.597L1575 278.106L1709.53 221.945L1885.35 217.294L1920 192.787" stroke="url(#paint16_linear_30_151)"/>
<path d="M0.837402 360.848L300.993 321.731L573.631 348.318L853.402 300.266L1150.5 321.731L1392.05 278.91L1575 287.082L1709.53 233.147L1885.35 228.68L1920 205.145" stroke="url(#paint17_linear_30_151)"/>
<path d="M0.837402 366.779L300.993 329.401L573.631 354.806L853.402 308.89L1150.5 329.401L1392.05 288.483L1575 296.292L1709.53 244.754L1885.35 240.485L1920 217.996" stroke="url(#paint18_linear_30_151)"/>
<path d="M0.837402 372.711L300.993 337.072L573.631 361.295L853.402 317.515L1150.5 337.072L1392.05 298.057L1575 305.502L1709.53 256.362L1885.35 252.291L1920 230.848" stroke="url(#paint19_linear_30_151)"/>
<path d="M0.837402 379.137L300.993 345.112L573.631 368.238L853.402 326.441L1150.5 345.112L1392.05 307.864L1575 314.973L1709.53 268.058L1885.35 264.172L1920 243.7" stroke="url(#paint20_linear_30_151)"/>
<path d="M0.837402 385.068L300.993 352.782L573.631 374.726L853.402 335.065L1150.5 352.782L1392.05 317.437L1575 324.182L1709.53 279.665L1885.35 275.977L1920 256.551" stroke="url(#paint21_linear_30_151)"/>
</g>
<defs>
<linearGradient id="paint0_linear_30_151" x1="-263.087" y1="68.4263" x2="585.334" y2="-1125.61" gradientUnits="userSpaceOnUse">
<stop stop-color="#8225C4"/>
<stop offset="0.317708" stop-color="#B516A8"/>
<stop offset="0.625" stop-color="#D80C95"/>
<stop offset="1" stop-color="#F50081"/>
</linearGradient>
<linearGradient id="paint1_linear_30_151" x1="-262.249" y1="300.523" x2="-16.6844" y2="-448.275" gradientUnits="userSpaceOnUse">
<stop stop-color="#8225C4"/>
<stop offset="0.317708" stop-color="#B516A8"/>
<stop offset="0.625" stop-color="#D80C95"/>
<stop offset="1" stop-color="#F50081"/>
</linearGradient>
<linearGradient id="paint2_linear_30_151" x1="-262.249" y1="79.6333" x2="558.559" y2="-1104.42" gradientUnits="userSpaceOnUse">
<stop stop-color="#8225C4"/>
<stop offset="0.317708" stop-color="#B516A8"/>
<stop offset="0.625" stop-color="#D80C95"/>
<stop offset="1" stop-color="#F50081"/>
</linearGradient>
<linearGradient id="paint3_linear_30_151" x1="-262.249" y1="90.7143" x2="528.592" y2="-1081.68" gradientUnits="userSpaceOnUse">
<stop stop-color="#8225C4"/>
<stop offset="0.317708" stop-color="#B516A8"/>
<stop offset="0.625" stop-color="#D80C95"/>
<stop offset="1" stop-color="#F50081"/>
</linearGradient>
<linearGradient id="paint4_linear_30_151" x1="-262.249" y1="101.795" x2="498.417" y2="-1057.95" gradientUnits="userSpaceOnUse">
<stop stop-color="#8225C4"/>
<stop offset="0.317708" stop-color="#B516A8"/>
<stop offset="0.625" stop-color="#D80C95"/>
<stop offset="1" stop-color="#F50081"/>
</linearGradient>
<linearGradient id="paint5_linear_30_151" x1="-262.249" y1="112.508" x2="470.24" y2="-1034.59" gradientUnits="userSpaceOnUse">
<stop stop-color="#8225C4"/>
<stop offset="0.317708" stop-color="#B516A8"/>
<stop offset="0.625" stop-color="#D80C95"/>
<stop offset="1" stop-color="#F50081"/>
</linearGradient>
<linearGradient id="paint6_linear_30_151" x1="-262.249" y1="123.588" x2="439.76" y2="-1008.87" gradientUnits="userSpaceOnUse">
<stop stop-color="#8225C4"/>
<stop offset="0.317708" stop-color="#B516A8"/>
<stop offset="0.625" stop-color="#D80C95"/>
<stop offset="1" stop-color="#F50081"/>
</linearGradient>
<linearGradient id="paint7_linear_30_151" x1="-262.249" y1="134.669" x2="409.179" y2="-982.082" gradientUnits="userSpaceOnUse">
<stop stop-color="#8225C4"/>
<stop offset="0.317708" stop-color="#B516A8"/>
<stop offset="0.625" stop-color="#D80C95"/>
<stop offset="1" stop-color="#F50081"/>
</linearGradient>
<linearGradient id="paint8_linear_30_151" x1="-262.249" y1="145.876" x2="380.73" y2="-955.297" gradientUnits="userSpaceOnUse">
<stop stop-color="#8225C4"/>
<stop offset="0.317708" stop-color="#B516A8"/>
<stop offset="0.625" stop-color="#D80C95"/>
<stop offset="1" stop-color="#F50081"/>
</linearGradient>
<linearGradient id="paint9_linear_30_151" x1="-262.249" y1="156.957" x2="350.076" y2="-926.346" gradientUnits="userSpaceOnUse">
<stop stop-color="#8225C4"/>
<stop offset="0.317708" stop-color="#B516A8"/>
<stop offset="0.625" stop-color="#D80C95"/>
<stop offset="1" stop-color="#F50081"/>
</linearGradient>
<linearGradient id="paint10_linear_30_151" x1="-262.249" y1="168.037" x2="319.455" y2="-896.233" gradientUnits="userSpaceOnUse">
<stop stop-color="#8225C4"/>
<stop offset="0.317708" stop-color="#B516A8"/>
<stop offset="0.625" stop-color="#D80C95"/>
<stop offset="1" stop-color="#F50081"/>
</linearGradient>
<linearGradient id="paint11_linear_30_151" x1="-262.249" y1="178.75" x2="291.095" y2="-866.784" gradientUnits="userSpaceOnUse">
<stop stop-color="#8225C4"/>
<stop offset="0.317708" stop-color="#B516A8"/>
<stop offset="0.625" stop-color="#D80C95"/>
<stop offset="1" stop-color="#F50081"/>
</linearGradient>
<linearGradient id="paint12_linear_30_151" x1="-262.249" y1="189.831" x2="260.684" y2="-834.36" gradientUnits="userSpaceOnUse">
<stop stop-color="#8225C4"/>
<stop offset="0.317708" stop-color="#B516A8"/>
<stop offset="0.625" stop-color="#D80C95"/>
<stop offset="1" stop-color="#F50081"/>
</linearGradient>
<linearGradient id="paint13_linear_30_151" x1="-262.249" y1="200.912" x2="230.465" y2="-800.707" gradientUnits="userSpaceOnUse">
<stop stop-color="#8225C4"/>
<stop offset="0.317708" stop-color="#B516A8"/>
<stop offset="0.625" stop-color="#D80C95"/>
<stop offset="1" stop-color="#F50081"/>
</linearGradient>
<linearGradient id="paint14_linear_30_151" x1="-262.249" y1="212.119" x2="202.63" y2="-767.423" gradientUnits="userSpaceOnUse">
<stop stop-color="#8225C4"/>
<stop offset="0.317708" stop-color="#B516A8"/>
<stop offset="0.625" stop-color="#D80C95"/>
<stop offset="1" stop-color="#F50081"/>
</linearGradient>
<linearGradient id="paint15_linear_30_151" x1="-262.249" y1="223.2" x2="172.954" y2="-731.351" gradientUnits="userSpaceOnUse">
<stop stop-color="#8225C4"/>
<stop offset="0.317708" stop-color="#B516A8"/>
<stop offset="0.625" stop-color="#D80C95"/>
<stop offset="1" stop-color="#F50081"/>
</linearGradient>
<linearGradient id="paint16_linear_30_151" x1="-262.249" y1="234.28" x2="143.654" y2="-694.007" gradientUnits="userSpaceOnUse">
<stop stop-color="#8225C4"/>
<stop offset="0.317708" stop-color="#B516A8"/>
<stop offset="0.625" stop-color="#D80C95"/>
<stop offset="1" stop-color="#F50081"/>
</linearGradient>
<linearGradient id="paint17_linear_30_151" x1="-262.249" y1="244.993" x2="116.844" y2="-657.76" gradientUnits="userSpaceOnUse">
<stop stop-color="#8225C4"/>
<stop offset="0.317708" stop-color="#B516A8"/>
<stop offset="0.625" stop-color="#D80C95"/>
<stop offset="1" stop-color="#F50081"/>
</linearGradient>
<linearGradient id="paint18_linear_30_151" x1="-262.249" y1="256.074" x2="88.4653" y2="-617.945" gradientUnits="userSpaceOnUse">
<stop stop-color="#8225C4"/>
<stop offset="0.317708" stop-color="#B516A8"/>
<stop offset="0.625" stop-color="#D80C95"/>
<stop offset="1" stop-color="#F50081"/>
</linearGradient>
<linearGradient id="paint19_linear_30_151" x1="-262.249" y1="267.155" x2="60.6685" y2="-576.847" gradientUnits="userSpaceOnUse">
<stop stop-color="#8225C4"/>
<stop offset="0.317708" stop-color="#B516A8"/>
<stop offset="0.625" stop-color="#D80C95"/>
<stop offset="1" stop-color="#F50081"/>
</linearGradient>
<linearGradient id="paint20_linear_30_151" x1="-262.249" y1="278.362" x2="35.4429" y2="-536.624" gradientUnits="userSpaceOnUse">
<stop stop-color="#8225C4"/>
<stop offset="0.317708" stop-color="#B516A8"/>
<stop offset="0.625" stop-color="#D80C95"/>
<stop offset="1" stop-color="#F50081"/>
</linearGradient>
<linearGradient id="paint21_linear_30_151" x1="-262.249" y1="289.442" x2="8.97838" y2="-493.075" gradientUnits="userSpaceOnUse">
<stop stop-color="#8225C4"/>
<stop offset="0.317708" stop-color="#B516A8"/>
<stop offset="0.625" stop-color="#D80C95"/>
<stop offset="1" stop-color="#F50081"/>
</linearGradient>
</defs>
</svg>
