<svg width="1366" height="392" viewBox="0 0 1366 392" fill="none" xmlns="http://www.w3.org/2000/svg">
<g opacity="0.48">
<path d="M0 264.46L213.548 198.272L407.518 243.258L606.564 161.952L817.937 198.272L989.791 125.816L1119.95 139.644L1215.67 48.3823L1340.75 40.8232L1365.4 1" stroke="url(#paint0_linear_51_82)"/>
<path d="M0.595764 391L214.144 360.452L408.114 381.214L607.16 343.688L818.533 360.452L990.387 327.01L1120.55 333.392L1216.26 291.272L1341.35 287.783L1366 269.403" stroke="url(#paint1_linear_51_82)"/>
<path d="M0.595764 270.886L214.144 206.312L408.114 250.201L607.16 170.878L818.533 206.312L990.387 135.624L1120.55 149.114L1216.26 60.0782L1341.35 52.7035L1366 13.8516" stroke="url(#paint2_linear_51_82)"/>
<path d="M0.595764 276.818L214.144 213.983L408.114 256.69L607.16 179.502L818.533 213.983L990.387 145.197L1120.55 158.324L1216.26 71.6856L1341.35 64.5095L1366 26.7036" stroke="url(#paint3_linear_51_82)"/>
<path d="M0.595764 282.749L214.144 221.653L408.114 263.178L607.16 188.126L818.533 221.653L990.387 154.77L1120.55 167.534L1216.26 83.2926L1341.35 76.3151L1366 39.5552" stroke="url(#paint4_linear_51_82)"/>
<path d="M0.595764 288.681L214.144 229.199L408.114 269.627L607.16 196.558L818.533 229.199L990.387 164.083L1120.55 176.51L1216.26 94.4944L1341.35 87.7012L1366 51.9126" stroke="url(#paint5_linear_51_82)"/>
<path d="M0.595764 294.612L214.144 236.869L408.114 276.115L607.16 205.182L818.533 236.869L990.387 173.657L1120.55 185.72L1216.26 106.102L1341.35 99.5069L1366 64.7643" stroke="url(#paint6_linear_51_82)"/>
<path d="M0.595764 300.544L214.144 244.539L408.114 282.604L607.16 213.807L818.533 244.539L990.387 183.23L1120.55 194.93L1216.26 117.709L1341.35 111.313L1366 77.6162" stroke="url(#paint7_linear_51_82)"/>
<path d="M0.595764 306.97L214.144 252.579L408.114 289.546L607.16 222.732L818.533 252.579L990.387 193.037L1120.55 204.4L1216.26 129.405L1341.35 123.193L1366 90.4677" stroke="url(#paint8_linear_51_82)"/>
<path d="M0.595764 312.901L214.144 260.249L408.114 296.035L607.16 231.356L818.533 260.249L990.387 202.61L1120.55 213.61L1216.26 141.012L1341.35 134.999L1366 103.319" stroke="url(#paint9_linear_51_82)"/>
<path d="M0.595764 318.833L214.144 267.919L408.114 302.523L607.16 239.98L818.533 267.919L990.387 212.183L1120.55 222.82L1216.26 152.619L1341.35 146.804L1366 116.171" stroke="url(#paint10_linear_51_82)"/>
<path d="M0.595764 324.764L214.144 275.465L408.114 308.972L607.16 248.412L818.533 275.465L990.387 221.497L1120.55 231.796L1216.26 163.821L1341.35 158.19L1366 128.528" stroke="url(#paint11_linear_51_82)"/>
<path d="M0.595764 330.696L214.144 283.135L408.114 315.461L607.16 257.036L818.533 283.135L990.387 231.07L1120.55 241.006L1216.26 175.428L1341.35 169.996L1366 141.38" stroke="url(#paint12_linear_51_82)"/>
<path d="M0.595764 336.627L214.144 290.805L408.114 321.949L607.16 265.66L818.533 290.805L990.387 240.643L1120.55 250.216L1216.26 187.035L1341.35 181.802L1366 154.232" stroke="url(#paint13_linear_51_82)"/>
<path d="M0.595764 343.053L214.144 298.845L408.114 328.892L607.16 274.586L818.533 298.845L990.387 250.45L1120.55 259.686L1216.26 198.731L1341.35 193.682L1366 167.083" stroke="url(#paint14_linear_51_82)"/>
<path d="M0.595764 348.985L214.144 306.516L408.114 335.381L607.16 283.211L818.533 306.516L990.387 260.024L1120.55 268.896L1216.26 210.338L1341.35 205.488L1366 179.936" stroke="url(#paint15_linear_51_82)"/>
<path d="M0.595764 354.916L214.144 314.186L408.114 341.869L607.16 291.835L818.533 314.186L990.387 269.597L1120.55 278.106L1216.26 221.945L1341.35 217.294L1366 192.787" stroke="url(#paint16_linear_51_82)"/>
<path d="M0.595764 360.848L214.144 321.731L408.114 348.318L607.16 300.266L818.533 321.731L990.387 278.91L1120.55 287.082L1216.26 233.147L1341.35 228.68L1366 205.145" stroke="url(#paint17_linear_51_82)"/>
<path d="M0.595764 366.779L214.144 329.401L408.114 354.806L607.16 308.89L818.533 329.401L990.387 288.483L1120.55 296.292L1216.26 244.754L1341.35 240.485L1366 217.996" stroke="url(#paint18_linear_51_82)"/>
<path d="M0.595764 372.711L214.144 337.072L408.114 361.295L607.16 317.515L818.533 337.072L990.387 298.057L1120.55 305.502L1216.26 256.362L1341.35 252.291L1366 230.848" stroke="url(#paint19_linear_51_82)"/>
<path d="M0.595764 379.137L214.144 345.112L408.114 368.238L607.16 326.441L818.533 345.112L990.387 307.864L1120.55 314.973L1216.26 268.058L1341.35 264.172L1366 243.7" stroke="url(#paint20_linear_51_82)"/>
<path d="M0.595764 385.068L214.144 352.782L408.114 374.726L607.16 335.065L818.533 352.782L990.387 317.437L1120.55 324.182L1216.26 279.665L1341.35 275.977L1366 256.551" stroke="url(#paint21_linear_51_82)"/>
</g>
<defs>
<linearGradient id="paint0_linear_51_82" x1="-187.175" y1="68.4263" x2="711.264" y2="-831.163" gradientUnits="userSpaceOnUse">
<stop stop-color="#8225C4"/>
<stop offset="0.317708" stop-color="#B516A8"/>
<stop offset="0.625" stop-color="#D80C95"/>
<stop offset="1" stop-color="#F50081"/>
</linearGradient>
<linearGradient id="paint1_linear_51_82" x1="-186.579" y1="300.523" x2="128.708" y2="-383.475" gradientUnits="userSpaceOnUse">
<stop stop-color="#8225C4"/>
<stop offset="0.317708" stop-color="#B516A8"/>
<stop offset="0.625" stop-color="#D80C95"/>
<stop offset="1" stop-color="#F50081"/>
</linearGradient>
<linearGradient id="paint2_linear_51_82" x1="-186.579" y1="79.6333" x2="689.652" y2="-819.653" gradientUnits="userSpaceOnUse">
<stop stop-color="#8225C4"/>
<stop offset="0.317708" stop-color="#B516A8"/>
<stop offset="0.625" stop-color="#D80C95"/>
<stop offset="1" stop-color="#F50081"/>
</linearGradient>
<linearGradient id="paint3_linear_51_82" x1="-186.579" y1="90.7143" x2="665.14" y2="-807.601" gradientUnits="userSpaceOnUse">
<stop stop-color="#8225C4"/>
<stop offset="0.317708" stop-color="#B516A8"/>
<stop offset="0.625" stop-color="#D80C95"/>
<stop offset="1" stop-color="#F50081"/>
</linearGradient>
<linearGradient id="paint4_linear_51_82" x1="-186.579" y1="101.795" x2="640.015" y2="-794.829" gradientUnits="userSpaceOnUse">
<stop stop-color="#8225C4"/>
<stop offset="0.317708" stop-color="#B516A8"/>
<stop offset="0.625" stop-color="#D80C95"/>
<stop offset="1" stop-color="#F50081"/>
</linearGradient>
<linearGradient id="paint5_linear_51_82" x1="-186.579" y1="112.508" x2="616.142" y2="-781.852" gradientUnits="userSpaceOnUse">
<stop stop-color="#8225C4"/>
<stop offset="0.317708" stop-color="#B516A8"/>
<stop offset="0.625" stop-color="#D80C95"/>
<stop offset="1" stop-color="#F50081"/>
</linearGradient>
<linearGradient id="paint6_linear_51_82" x1="-186.579" y1="123.588" x2="589.858" y2="-767.532" gradientUnits="userSpaceOnUse">
<stop stop-color="#8225C4"/>
<stop offset="0.317708" stop-color="#B516A8"/>
<stop offset="0.625" stop-color="#D80C95"/>
<stop offset="1" stop-color="#F50081"/>
</linearGradient>
<linearGradient id="paint7_linear_51_82" x1="-186.579" y1="134.669" x2="562.994" y2="-752.324" gradientUnits="userSpaceOnUse">
<stop stop-color="#8225C4"/>
<stop offset="0.317708" stop-color="#B516A8"/>
<stop offset="0.625" stop-color="#D80C95"/>
<stop offset="1" stop-color="#F50081"/>
</linearGradient>
<linearGradient id="paint8_linear_51_82" x1="-186.579" y1="145.876" x2="537.546" y2="-736.436" gradientUnits="userSpaceOnUse">
<stop stop-color="#8225C4"/>
<stop offset="0.317708" stop-color="#B516A8"/>
<stop offset="0.625" stop-color="#D80C95"/>
<stop offset="1" stop-color="#F50081"/>
</linearGradient>
<linearGradient id="paint9_linear_51_82" x1="-186.579" y1="156.957" x2="509.621" y2="-719.339" gradientUnits="userSpaceOnUse">
<stop stop-color="#8225C4"/>
<stop offset="0.317708" stop-color="#B516A8"/>
<stop offset="0.625" stop-color="#D80C95"/>
<stop offset="1" stop-color="#F50081"/>
</linearGradient>
<linearGradient id="paint10_linear_51_82" x1="-186.579" y1="168.037" x2="481.186" y2="-701.169" gradientUnits="userSpaceOnUse">
<stop stop-color="#8225C4"/>
<stop offset="0.317708" stop-color="#B516A8"/>
<stop offset="0.625" stop-color="#D80C95"/>
<stop offset="1" stop-color="#F50081"/>
</linearGradient>
<linearGradient id="paint11_linear_51_82" x1="-186.579" y1="178.75" x2="454.358" y2="-682.853" gradientUnits="userSpaceOnUse">
<stop stop-color="#8225C4"/>
<stop offset="0.317708" stop-color="#B516A8"/>
<stop offset="0.625" stop-color="#D80C95"/>
<stop offset="1" stop-color="#F50081"/>
</linearGradient>
<linearGradient id="paint12_linear_51_82" x1="-186.579" y1="189.831" x2="425.046" y2="-662.424" gradientUnits="userSpaceOnUse">
<stop stop-color="#8225C4"/>
<stop offset="0.317708" stop-color="#B516A8"/>
<stop offset="0.625" stop-color="#D80C95"/>
<stop offset="1" stop-color="#F50081"/>
</linearGradient>
<linearGradient id="paint13_linear_51_82" x1="-186.579" y1="200.912" x2="395.347" y2="-640.725" gradientUnits="userSpaceOnUse">
<stop stop-color="#8225C4"/>
<stop offset="0.317708" stop-color="#B516A8"/>
<stop offset="0.625" stop-color="#D80C95"/>
<stop offset="1" stop-color="#F50081"/>
</linearGradient>
<linearGradient id="paint14_linear_51_82" x1="-186.579" y1="212.119" x2="367.471" y2="-618.462" gradientUnits="userSpaceOnUse">
<stop stop-color="#8225C4"/>
<stop offset="0.317708" stop-color="#B516A8"/>
<stop offset="0.625" stop-color="#D80C95"/>
<stop offset="1" stop-color="#F50081"/>
</linearGradient>
<linearGradient id="paint15_linear_51_82" x1="-186.579" y1="223.2" x2="337.187" y2="-594.125" gradientUnits="userSpaceOnUse">
<stop stop-color="#8225C4"/>
<stop offset="0.317708" stop-color="#B516A8"/>
<stop offset="0.625" stop-color="#D80C95"/>
<stop offset="1" stop-color="#F50081"/>
</linearGradient>
<linearGradient id="paint16_linear_51_82" x1="-186.579" y1="234.28" x2="306.699" y2="-568.324" gradientUnits="userSpaceOnUse">
<stop stop-color="#8225C4"/>
<stop offset="0.317708" stop-color="#B516A8"/>
<stop offset="0.625" stop-color="#D80C95"/>
<stop offset="1" stop-color="#F50081"/>
</linearGradient>
<linearGradient id="paint17_linear_51_82" x1="-186.579" y1="244.993" x2="278.275" y2="-542.578" gradientUnits="userSpaceOnUse">
<stop stop-color="#8225C4"/>
<stop offset="0.317708" stop-color="#B516A8"/>
<stop offset="0.625" stop-color="#D80C95"/>
<stop offset="1" stop-color="#F50081"/>
</linearGradient>
<linearGradient id="paint18_linear_51_82" x1="-186.579" y1="256.074" x2="247.624" y2="-513.782" gradientUnits="userSpaceOnUse">
<stop stop-color="#8225C4"/>
<stop offset="0.317708" stop-color="#B516A8"/>
<stop offset="0.625" stop-color="#D80C95"/>
<stop offset="1" stop-color="#F50081"/>
</linearGradient>
<linearGradient id="paint19_linear_51_82" x1="-186.579" y1="267.155" x2="217.022" y2="-483.35" gradientUnits="userSpaceOnUse">
<stop stop-color="#8225C4"/>
<stop offset="0.317708" stop-color="#B516A8"/>
<stop offset="0.625" stop-color="#D80C95"/>
<stop offset="1" stop-color="#F50081"/>
</linearGradient>
<linearGradient id="paint20_linear_51_82" x1="-186.579" y1="278.362" x2="188.742" y2="-452.668" gradientUnits="userSpaceOnUse">
<stop stop-color="#8225C4"/>
<stop offset="0.317708" stop-color="#B516A8"/>
<stop offset="0.625" stop-color="#D80C95"/>
<stop offset="1" stop-color="#F50081"/>
</linearGradient>
<linearGradient id="paint21_linear_51_82" x1="-186.579" y1="289.442" x2="158.536" y2="-418.951" gradientUnits="userSpaceOnUse">
<stop stop-color="#8225C4"/>
<stop offset="0.317708" stop-color="#B516A8"/>
<stop offset="0.625" stop-color="#D80C95"/>
<stop offset="1" stop-color="#F50081"/>
</linearGradient>
</defs>
</svg>
