<svg width="768" height="244" viewBox="0 0 768 244" fill="none" xmlns="http://www.w3.org/2000/svg">
<g opacity="0.48">
<path d="M0 164.48L120.062 123.41L229.117 151.324L341.026 100.873L459.865 123.41L556.486 78.4501L629.665 87.0303L683.479 30.4013L753.804 25.7108L767.665 1" stroke="url(#paint0_linear_52_990)"/>
<path d="M0.334961 243L120.397 224.044L229.452 236.928L341.361 213.643L460.2 224.044L556.821 203.294L630 207.254L683.814 181.117L754.139 178.952L768 167.547" stroke="url(#paint1_linear_52_990)"/>
<path d="M0.334961 168.468L120.397 128.399L229.452 155.632L341.361 106.412L460.2 128.399L556.821 84.5357L630 92.9066L683.814 37.6588L754.139 33.0827L768 8.97461" stroke="url(#paint2_linear_52_990)"/>
<path d="M0.334961 172.148L120.397 133.158L229.452 159.658L341.361 111.763L460.2 133.158L556.821 90.476L630 98.6215L683.814 44.8612L754.139 40.4083L768 16.9492" stroke="url(#paint3_linear_52_990)"/>
<path d="M0.334961 175.829L120.397 137.918L229.452 163.685L341.361 117.115L460.2 137.918L556.821 96.4167L630 104.337L683.814 52.064L754.139 47.7343L768 24.9243" stroke="url(#paint4_linear_52_990)"/>
<path d="M0.334961 179.509L120.397 142.6L229.452 167.686L341.361 122.346L460.2 142.6L556.821 102.195L630 109.906L683.814 59.0144L754.139 54.7991L768 32.5918" stroke="url(#paint5_linear_52_990)"/>
<path d="M0.334961 183.19L120.397 147.359L229.452 171.712L341.361 127.698L460.2 147.359L556.821 108.135L630 115.621L683.814 66.2167L754.139 62.1246L768 40.5664" stroke="url(#paint6_linear_52_990)"/>
<path d="M0.334961 186.871L120.397 152.119L229.452 175.739L341.361 133.049L460.2 152.119L556.821 114.076L630 121.336L683.814 73.4195L754.139 69.4507L768 48.5415" stroke="url(#paint7_linear_52_990)"/>
<path d="M0.334961 190.858L120.397 157.108L229.452 180.047L341.361 138.588L460.2 157.108L556.821 120.162L630 127.213L683.814 80.677L754.139 76.8226L768 56.5161" stroke="url(#paint8_linear_52_990)"/>
<path d="M0.334961 194.539L120.397 161.868L229.452 184.073L341.361 143.939L460.2 161.868L556.821 126.102L630 132.928L683.814 87.8794L754.139 84.1481L768 64.4907" stroke="url(#paint9_linear_52_990)"/>
<path d="M0.334961 198.219L120.397 166.626L229.452 188.099L341.361 149.29L460.2 166.626L556.821 132.042L630 138.642L683.814 95.0812L754.139 91.4732L768 72.4648" stroke="url(#paint10_linear_52_990)"/>
<path d="M0.334961 201.9L120.397 171.309L229.452 192.1L341.361 154.522L460.2 171.309L556.821 137.821L630 144.212L683.814 102.032L754.139 98.5384L768 80.1328" stroke="url(#paint11_linear_52_990)"/>
<path d="M0.334961 205.581L120.397 176.069L229.452 196.127L341.361 159.874L460.2 176.069L556.821 143.762L630 149.927L683.814 109.235L754.139 105.864L768 88.1079" stroke="url(#paint12_linear_52_990)"/>
<path d="M0.334961 209.261L120.397 180.828L229.452 200.153L341.361 165.225L460.2 180.828L556.821 149.702L630 155.642L683.814 116.437L754.139 113.19L768 96.0825" stroke="url(#paint13_linear_52_990)"/>
<path d="M0.334961 213.249L120.397 185.817L229.452 204.461L341.361 170.764L460.2 185.817L556.821 155.787L630 161.518L683.814 123.695L754.139 120.562L768 104.057" stroke="url(#paint14_linear_52_990)"/>
<path d="M0.334961 216.93L120.397 190.577L229.452 208.488L341.361 176.116L460.2 190.577L556.821 161.728L630 167.234L683.814 130.898L754.139 127.888L768 112.032" stroke="url(#paint15_linear_52_990)"/>
<path d="M0.334961 220.61L120.397 195.336L229.452 212.514L341.361 181.467L460.2 195.336L556.821 167.668L630 172.949L683.814 138.1L754.139 135.213L768 120.007" stroke="url(#paint16_linear_52_990)"/>
<path d="M0.334961 224.29L120.397 200.018L229.452 216.515L341.361 186.699L460.2 200.018L556.821 173.447L630 178.518L683.814 145.05L754.139 142.278L768 127.674" stroke="url(#paint17_linear_52_990)"/>
<path d="M0.334961 227.97L120.397 204.777L229.452 220.541L341.361 192.049L460.2 204.777L556.821 179.387L630 184.232L683.814 152.252L754.139 149.603L768 135.648" stroke="url(#paint18_linear_52_990)"/>
<path d="M0.334961 231.652L120.397 209.537L229.452 224.568L341.361 197.402L460.2 209.537L556.821 185.328L630 189.948L683.814 159.455L754.139 156.93L768 143.624" stroke="url(#paint19_linear_52_990)"/>
<path d="M0.334961 235.639L120.397 214.526L229.452 228.875L341.361 202.94L460.2 214.526L556.821 191.413L630 195.824L683.814 166.713L754.139 164.301L768 151.598" stroke="url(#paint20_linear_52_990)"/>
<path d="M0.334961 239.32L120.397 219.285L229.452 232.902L341.361 208.292L460.2 219.285L556.821 197.354L630 201.539L683.814 173.915L754.139 171.627L768 159.573" stroke="url(#paint21_linear_52_990)"/>
</g>
<defs>
<linearGradient id="paint0_linear_52_990" x1="-105.235" y1="42.8389" x2="449.627" y2="-460.546" gradientUnits="userSpaceOnUse">
<stop stop-color="#8225C4"/>
<stop offset="0.317708" stop-color="#B516A8"/>
<stop offset="0.625" stop-color="#D80C95"/>
<stop offset="1" stop-color="#F50081"/>
</linearGradient>
<linearGradient id="paint1_linear_52_990" x1="-104.9" y1="186.858" x2="103.075" y2="-221.948" gradientUnits="userSpaceOnUse">
<stop stop-color="#8225C4"/>
<stop offset="0.317708" stop-color="#B516A8"/>
<stop offset="0.625" stop-color="#D80C95"/>
<stop offset="1" stop-color="#F50081"/>
</linearGradient>
<linearGradient id="paint2_linear_52_990" x1="-104.9" y1="49.793" x2="437.564" y2="-454.647" gradientUnits="userSpaceOnUse">
<stop stop-color="#8225C4"/>
<stop offset="0.317708" stop-color="#B516A8"/>
<stop offset="0.625" stop-color="#D80C95"/>
<stop offset="1" stop-color="#F50081"/>
</linearGradient>
<linearGradient id="paint3_linear_52_990" x1="-104.9" y1="56.6687" x2="423.809" y2="-448.583" gradientUnits="userSpaceOnUse">
<stop stop-color="#8225C4"/>
<stop offset="0.317708" stop-color="#B516A8"/>
<stop offset="0.625" stop-color="#D80C95"/>
<stop offset="1" stop-color="#F50081"/>
</linearGradient>
<linearGradient id="paint4_linear_52_990" x1="-104.9" y1="63.5448" x2="409.633" y2="-442.152" gradientUnits="userSpaceOnUse">
<stop stop-color="#8225C4"/>
<stop offset="0.317708" stop-color="#B516A8"/>
<stop offset="0.625" stop-color="#D80C95"/>
<stop offset="1" stop-color="#F50081"/>
</linearGradient>
<linearGradient id="paint5_linear_52_990" x1="-104.9" y1="70.1918" x2="396.09" y2="-435.558" gradientUnits="userSpaceOnUse">
<stop stop-color="#8225C4"/>
<stop offset="0.317708" stop-color="#B516A8"/>
<stop offset="0.625" stop-color="#D80C95"/>
<stop offset="1" stop-color="#F50081"/>
</linearGradient>
<linearGradient id="paint6_linear_52_990" x1="-104.9" y1="77.0675" x2="381.097" y2="-428.318" gradientUnits="userSpaceOnUse">
<stop stop-color="#8225C4"/>
<stop offset="0.317708" stop-color="#B516A8"/>
<stop offset="0.625" stop-color="#D80C95"/>
<stop offset="1" stop-color="#F50081"/>
</linearGradient>
<linearGradient id="paint7_linear_52_990" x1="-104.9" y1="83.9436" x2="365.683" y2="-420.603" gradientUnits="userSpaceOnUse">
<stop stop-color="#8225C4"/>
<stop offset="0.317708" stop-color="#B516A8"/>
<stop offset="0.625" stop-color="#D80C95"/>
<stop offset="1" stop-color="#F50081"/>
</linearGradient>
<linearGradient id="paint8_linear_52_990" x1="-104.9" y1="90.8978" x2="350.995" y2="-412.409" gradientUnits="userSpaceOnUse">
<stop stop-color="#8225C4"/>
<stop offset="0.317708" stop-color="#B516A8"/>
<stop offset="0.625" stop-color="#D80C95"/>
<stop offset="1" stop-color="#F50081"/>
</linearGradient>
<linearGradient id="paint9_linear_52_990" x1="-104.9" y1="97.7734" x2="334.782" y2="-403.662" gradientUnits="userSpaceOnUse">
<stop stop-color="#8225C4"/>
<stop offset="0.317708" stop-color="#B516A8"/>
<stop offset="0.625" stop-color="#D80C95"/>
<stop offset="1" stop-color="#F50081"/>
</linearGradient>
<linearGradient id="paint10_linear_52_990" x1="-104.9" y1="104.649" x2="318.17" y2="-394.316" gradientUnits="userSpaceOnUse">
<stop stop-color="#8225C4"/>
<stop offset="0.317708" stop-color="#B516A8"/>
<stop offset="0.625" stop-color="#D80C95"/>
<stop offset="1" stop-color="#F50081"/>
</linearGradient>
<linearGradient id="paint11_linear_52_990" x1="-104.9" y1="111.296" x2="302.397" y2="-384.797" gradientUnits="userSpaceOnUse">
<stop stop-color="#8225C4"/>
<stop offset="0.317708" stop-color="#B516A8"/>
<stop offset="0.625" stop-color="#D80C95"/>
<stop offset="1" stop-color="#F50081"/>
</linearGradient>
<linearGradient id="paint12_linear_52_990" x1="-104.9" y1="118.172" x2="285.057" y2="-374.161" gradientUnits="userSpaceOnUse">
<stop stop-color="#8225C4"/>
<stop offset="0.317708" stop-color="#B516A8"/>
<stop offset="0.625" stop-color="#D80C95"/>
<stop offset="1" stop-color="#F50081"/>
</linearGradient>
<linearGradient id="paint13_linear_52_990" x1="-104.9" y1="125.048" x2="267.369" y2="-362.787" gradientUnits="userSpaceOnUse">
<stop stop-color="#8225C4"/>
<stop offset="0.317708" stop-color="#B516A8"/>
<stop offset="0.625" stop-color="#D80C95"/>
<stop offset="1" stop-color="#F50081"/>
</linearGradient>
<linearGradient id="paint14_linear_52_990" x1="-104.9" y1="132.002" x2="250.658" y2="-350.949" gradientUnits="userSpaceOnUse">
<stop stop-color="#8225C4"/>
<stop offset="0.317708" stop-color="#B516A8"/>
<stop offset="0.625" stop-color="#D80C95"/>
<stop offset="1" stop-color="#F50081"/>
</linearGradient>
<linearGradient id="paint15_linear_52_990" x1="-104.9" y1="138.878" x2="232.384" y2="-338.005" gradientUnits="userSpaceOnUse">
<stop stop-color="#8225C4"/>
<stop offset="0.317708" stop-color="#B516A8"/>
<stop offset="0.625" stop-color="#D80C95"/>
<stop offset="1" stop-color="#F50081"/>
</linearGradient>
<linearGradient id="paint16_linear_52_990" x1="-104.9" y1="145.754" x2="213.859" y2="-324.173" gradientUnits="userSpaceOnUse">
<stop stop-color="#8225C4"/>
<stop offset="0.317708" stop-color="#B516A8"/>
<stop offset="0.625" stop-color="#D80C95"/>
<stop offset="1" stop-color="#F50081"/>
</linearGradient>
<linearGradient id="paint17_linear_52_990" x1="-104.9" y1="152.401" x2="196.471" y2="-310.228" gradientUnits="userSpaceOnUse">
<stop stop-color="#8225C4"/>
<stop offset="0.317708" stop-color="#B516A8"/>
<stop offset="0.625" stop-color="#D80C95"/>
<stop offset="1" stop-color="#F50081"/>
</linearGradient>
<linearGradient id="paint18_linear_52_990" x1="-104.9" y1="159.276" x2="177.593" y2="-294.543" gradientUnits="userSpaceOnUse">
<stop stop-color="#8225C4"/>
<stop offset="0.317708" stop-color="#B516A8"/>
<stop offset="0.625" stop-color="#D80C95"/>
<stop offset="1" stop-color="#F50081"/>
</linearGradient>
<linearGradient id="paint19_linear_52_990" x1="-104.9" y1="166.153" x2="158.612" y2="-277.824" gradientUnits="userSpaceOnUse">
<stop stop-color="#8225C4"/>
<stop offset="0.317708" stop-color="#B516A8"/>
<stop offset="0.625" stop-color="#D80C95"/>
<stop offset="1" stop-color="#F50081"/>
</linearGradient>
<linearGradient id="paint20_linear_52_990" x1="-104.9" y1="173.106" x2="140.951" y2="-260.768" gradientUnits="userSpaceOnUse">
<stop stop-color="#8225C4"/>
<stop offset="0.317708" stop-color="#B516A8"/>
<stop offset="0.625" stop-color="#D80C95"/>
<stop offset="1" stop-color="#F50081"/>
</linearGradient>
<linearGradient id="paint21_linear_52_990" x1="-104.9" y1="179.982" x2="121.96" y2="-241.934" gradientUnits="userSpaceOnUse">
<stop stop-color="#8225C4"/>
<stop offset="0.317708" stop-color="#B516A8"/>
<stop offset="0.625" stop-color="#D80C95"/>
<stop offset="1" stop-color="#F50081"/>
</linearGradient>
</defs>
</svg>
