<svg width="320" height="168" viewBox="0 0 320 168" fill="none" xmlns="http://www.w3.org/2000/svg">
<g opacity="0.48">
<path d="M0 113L50.0478 84.8628L95.5072 103.987L142.156 69.4227L191.694 84.8628L231.97 54.0609L262.475 59.9391L284.907 21.1428L314.222 17.9293L320 1" stroke="url(#paint0_linear_52_1014)"/>
<path d="M0 167L50.0478 153.936L95.5072 162.815L142.156 146.768L191.694 153.936L231.97 139.635L262.475 142.365L284.907 124.352L314.222 122.86L320 115" stroke="url(#paint1_linear_52_1014)"/>
<path d="M0 115L50.0478 87.6165L95.5072 106.228L142.156 72.5899L191.694 87.6165L231.97 57.6396L262.475 63.3604L284.907 25.6032L314.222 22.4759L320 6" stroke="url(#paint2_linear_52_1014)"/>
<path d="M0 118L50.0478 91.3702L95.5072 109.47L142.156 76.7572L191.694 91.3702L231.97 62.2183L262.475 67.7817L284.907 31.0637L314.222 28.0224L320 12" stroke="url(#paint3_linear_52_1014)"/>
<path d="M0 121L50.0478 94.8726L95.5072 112.631L142.156 80.5353L191.694 94.8726L231.97 66.2708L262.475 71.7292L284.907 35.704L314.222 32.7201L320 17" stroke="url(#paint4_linear_52_1014)"/>
<path d="M0 124L50.0478 98.6263L95.5072 115.872L142.156 84.7026L191.694 98.6263L231.97 70.8495L262.475 76.1505L284.907 41.1645L314.222 38.2666L320 23" stroke="url(#paint5_linear_52_1014)"/>
<path d="M0 126L50.0478 101.38L95.5072 118.113L142.156 87.8698L191.694 101.38L231.97 74.4283L262.475 79.5717L284.907 45.6249L314.222 42.8132L320 28" stroke="url(#paint6_linear_52_1014)"/>
<path d="M0 129L50.0478 105.134L95.5072 121.355L142.156 92.0371L191.694 105.134L231.97 79.007L262.475 83.993L284.907 51.0854L314.222 48.3597L320 34" stroke="url(#paint7_linear_52_1014)"/>
<path d="M0 131L50.0478 107.887L95.5072 123.596L142.156 95.2043L191.694 107.887L231.97 82.5857L262.475 87.4143L284.907 55.5458L314.222 52.9062L320 39" stroke="url(#paint8_linear_52_1014)"/>
<path d="M0 134L50.0478 111.641L95.5072 126.838L142.156 99.3716L191.694 111.641L231.97 87.1645L262.475 91.8356L284.907 61.0063L314.222 58.4528L320 45" stroke="url(#paint9_linear_52_1014)"/>
<path d="M0 136L50.0478 114.395L95.5072 129.079L142.156 102.539L191.694 114.395L231.97 90.7432L262.475 95.2568L284.907 65.4668L314.222 62.9993L320 50" stroke="url(#paint10_linear_52_1014)"/>
<path d="M0 139L50.0478 117.897L95.5072 132.24L142.156 106.317L191.694 117.897L231.97 94.7957L262.475 99.2043L284.907 70.1071L314.222 67.697L320 55" stroke="url(#paint11_linear_52_1014)"/>
<path d="M0 142L50.0478 121.651L95.5072 135.481L142.156 110.484L191.694 121.651L231.97 99.3744L262.475 103.626L284.907 75.5675L314.222 73.2435L320 61" stroke="url(#paint12_linear_52_1014)"/>
<path d="M0 144L50.0478 124.404L95.5072 137.723L142.156 113.652L191.694 124.404L231.97 102.953L262.475 107.047L284.907 80.028L314.222 77.7901L320 66" stroke="url(#paint13_linear_52_1014)"/>
<path d="M0 147L50.0478 128.158L95.5072 140.964L142.156 117.819L191.694 128.158L231.97 107.532L262.475 111.468L284.907 85.4885L314.222 83.3366L320 72" stroke="url(#paint14_linear_52_1014)"/>
<path d="M0 149L50.0478 130.912L95.5072 143.206L142.156 120.986L191.694 130.912L231.97 111.111L262.475 114.889L284.907 89.9489L314.222 87.8831L320 77" stroke="url(#paint15_linear_52_1014)"/>
<path d="M0 152L50.0478 134.665L95.5072 146.447L142.156 125.153L191.694 134.665L231.97 115.689L262.475 119.311L284.907 95.4094L314.222 93.4297L320 83" stroke="url(#paint16_linear_52_1014)"/>
<path d="M0 154L50.0478 137.419L95.5072 148.689L142.156 128.321L191.694 137.419L231.97 119.268L262.475 122.732L284.907 99.8698L314.222 97.9762L320 88" stroke="url(#paint17_linear_52_1014)"/>
<path d="M0 156L50.0478 140.173L95.5072 150.93L142.156 131.488L191.694 140.173L231.97 122.847L262.475 126.153L284.907 104.33L314.222 102.523L320 93" stroke="url(#paint18_linear_52_1014)"/>
<path d="M0 159L50.0478 143.927L95.5072 154.171L142.156 135.655L191.694 143.927L231.97 127.425L262.475 130.575L284.907 109.791L314.222 108.069L320 99" stroke="url(#paint19_linear_52_1014)"/>
<path d="M0 162L50.0478 147.429L95.5072 157.332L142.156 139.433L191.694 147.429L231.97 131.478L262.475 134.522L284.907 114.431L314.222 112.767L320 104" stroke="url(#paint20_linear_52_1014)"/>
<path d="M0 165L50.0478 151.183L95.5072 160.574L142.156 143.6L191.694 151.183L231.97 136.057L262.475 138.943L284.907 119.892L314.222 118.314L320 110" stroke="url(#paint21_linear_52_1014)"/>
</g>
<defs>
<linearGradient id="paint0_linear_52_1014" x1="-43.8669" y1="29.6637" x2="279.318" y2="-148.735" gradientUnits="userSpaceOnUse">
<stop stop-color="#8225C4"/>
<stop offset="0.317708" stop-color="#B516A8"/>
<stop offset="0.625" stop-color="#D80C95"/>
<stop offset="1" stop-color="#F50081"/>
</linearGradient>
<linearGradient id="paint1_linear_52_1014" x1="-43.8669" y1="128.308" x2="130.839" y2="-79.4043" gradientUnits="userSpaceOnUse">
<stop stop-color="#8225C4"/>
<stop offset="0.317708" stop-color="#B516A8"/>
<stop offset="0.625" stop-color="#D80C95"/>
<stop offset="1" stop-color="#F50081"/>
</linearGradient>
<linearGradient id="paint2_linear_52_1014" x1="-43.8669" y1="33.8959" x2="275.16" y2="-147.054" gradientUnits="userSpaceOnUse">
<stop stop-color="#8225C4"/>
<stop offset="0.317708" stop-color="#B516A8"/>
<stop offset="0.625" stop-color="#D80C95"/>
<stop offset="1" stop-color="#F50081"/>
</linearGradient>
<linearGradient id="paint3_linear_52_1014" x1="-43.8669" y1="39.1281" x2="270.764" y2="-144.379" gradientUnits="userSpaceOnUse">
<stop stop-color="#8225C4"/>
<stop offset="0.317708" stop-color="#B516A8"/>
<stop offset="0.625" stop-color="#D80C95"/>
<stop offset="1" stop-color="#F50081"/>
</linearGradient>
<linearGradient id="paint4_linear_52_1014" x1="-43.8669" y1="43.6163" x2="267.693" y2="-141.595" gradientUnits="userSpaceOnUse">
<stop stop-color="#8225C4"/>
<stop offset="0.317708" stop-color="#B516A8"/>
<stop offset="0.625" stop-color="#D80C95"/>
<stop offset="1" stop-color="#F50081"/>
</linearGradient>
<linearGradient id="paint5_linear_52_1014" x1="-43.8669" y1="48.8485" x2="262.864" y2="-138.908" gradientUnits="userSpaceOnUse">
<stop stop-color="#8225C4"/>
<stop offset="0.317708" stop-color="#B516A8"/>
<stop offset="0.625" stop-color="#D80C95"/>
<stop offset="1" stop-color="#F50081"/>
</linearGradient>
<linearGradient id="paint6_linear_52_1014" x1="-43.8669" y1="53.0807" x2="257.754" y2="-137.2" gradientUnits="userSpaceOnUse">
<stop stop-color="#8225C4"/>
<stop offset="0.317708" stop-color="#B516A8"/>
<stop offset="0.625" stop-color="#D80C95"/>
<stop offset="1" stop-color="#F50081"/>
</linearGradient>
<linearGradient id="paint7_linear_52_1014" x1="-43.8669" y1="58.313" x2="252.344" y2="-134.455" gradientUnits="userSpaceOnUse">
<stop stop-color="#8225C4"/>
<stop offset="0.317708" stop-color="#B516A8"/>
<stop offset="0.625" stop-color="#D80C95"/>
<stop offset="1" stop-color="#F50081"/>
</linearGradient>
<linearGradient id="paint8_linear_52_1014" x1="-43.8669" y1="62.5452" x2="246.616" y2="-132.66" gradientUnits="userSpaceOnUse">
<stop stop-color="#8225C4"/>
<stop offset="0.317708" stop-color="#B516A8"/>
<stop offset="0.625" stop-color="#D80C95"/>
<stop offset="1" stop-color="#F50081"/>
</linearGradient>
<linearGradient id="paint9_linear_52_1014" x1="-43.8669" y1="67.7774" x2="240.55" y2="-129.794" gradientUnits="userSpaceOnUse">
<stop stop-color="#8225C4"/>
<stop offset="0.317708" stop-color="#B516A8"/>
<stop offset="0.625" stop-color="#D80C95"/>
<stop offset="1" stop-color="#F50081"/>
</linearGradient>
<linearGradient id="paint10_linear_52_1014" x1="-43.8669" y1="72.0096" x2="234.127" y2="-127.837" gradientUnits="userSpaceOnUse">
<stop stop-color="#8225C4"/>
<stop offset="0.317708" stop-color="#B516A8"/>
<stop offset="0.625" stop-color="#D80C95"/>
<stop offset="1" stop-color="#F50081"/>
</linearGradient>
<linearGradient id="paint11_linear_52_1014" x1="-43.8669" y1="76.4978" x2="229.637" y2="-124.802" gradientUnits="userSpaceOnUse">
<stop stop-color="#8225C4"/>
<stop offset="0.317708" stop-color="#B516A8"/>
<stop offset="0.625" stop-color="#D80C95"/>
<stop offset="1" stop-color="#F50081"/>
</linearGradient>
<linearGradient id="paint12_linear_52_1014" x1="-43.8669" y1="81.73" x2="222.574" y2="-121.634" gradientUnits="userSpaceOnUse">
<stop stop-color="#8225C4"/>
<stop offset="0.317708" stop-color="#B516A8"/>
<stop offset="0.625" stop-color="#D80C95"/>
<stop offset="1" stop-color="#F50081"/>
</linearGradient>
<linearGradient id="paint13_linear_52_1014" x1="-43.8669" y1="85.9622" x2="215.1" y2="-119.3" gradientUnits="userSpaceOnUse">
<stop stop-color="#8225C4"/>
<stop offset="0.317708" stop-color="#B516A8"/>
<stop offset="0.625" stop-color="#D80C95"/>
<stop offset="1" stop-color="#F50081"/>
</linearGradient>
<linearGradient id="paint14_linear_52_1014" x1="-43.8669" y1="91.1944" x2="207.195" y2="-115.762" gradientUnits="userSpaceOnUse">
<stop stop-color="#8225C4"/>
<stop offset="0.317708" stop-color="#B516A8"/>
<stop offset="0.625" stop-color="#D80C95"/>
<stop offset="1" stop-color="#F50081"/>
</linearGradient>
<linearGradient id="paint15_linear_52_1014" x1="-43.8669" y1="95.4267" x2="198.841" y2="-112.98" gradientUnits="userSpaceOnUse">
<stop stop-color="#8225C4"/>
<stop offset="0.317708" stop-color="#B516A8"/>
<stop offset="0.625" stop-color="#D80C95"/>
<stop offset="1" stop-color="#F50081"/>
</linearGradient>
<linearGradient id="paint16_linear_52_1014" x1="-43.8669" y1="100.659" x2="190.022" y2="-108.907" gradientUnits="userSpaceOnUse">
<stop stop-color="#8225C4"/>
<stop offset="0.317708" stop-color="#B516A8"/>
<stop offset="0.625" stop-color="#D80C95"/>
<stop offset="1" stop-color="#F50081"/>
</linearGradient>
<linearGradient id="paint17_linear_52_1014" x1="-43.8669" y1="104.891" x2="180.724" y2="-105.49" gradientUnits="userSpaceOnUse">
<stop stop-color="#8225C4"/>
<stop offset="0.317708" stop-color="#B516A8"/>
<stop offset="0.625" stop-color="#D80C95"/>
<stop offset="1" stop-color="#F50081"/>
</linearGradient>
<linearGradient id="paint18_linear_52_1014" x1="-43.8669" y1="109.123" x2="170.935" y2="-101.67" gradientUnits="userSpaceOnUse">
<stop stop-color="#8225C4"/>
<stop offset="0.317708" stop-color="#B516A8"/>
<stop offset="0.625" stop-color="#D80C95"/>
<stop offset="1" stop-color="#F50081"/>
</linearGradient>
<linearGradient id="paint19_linear_52_1014" x1="-43.8669" y1="114.356" x2="160.651" y2="-96.3803" gradientUnits="userSpaceOnUse">
<stop stop-color="#8225C4"/>
<stop offset="0.317708" stop-color="#B516A8"/>
<stop offset="0.625" stop-color="#D80C95"/>
<stop offset="1" stop-color="#F50081"/>
</linearGradient>
<linearGradient id="paint20_linear_52_1014" x1="-43.8669" y1="118.844" x2="153.52" y2="-91.5576" gradientUnits="userSpaceOnUse">
<stop stop-color="#8225C4"/>
<stop offset="0.317708" stop-color="#B516A8"/>
<stop offset="0.625" stop-color="#D80C95"/>
<stop offset="1" stop-color="#F50081"/>
</linearGradient>
<linearGradient id="paint21_linear_52_1014" x1="-43.8669" y1="124.076" x2="142.416" y2="-85.3206" gradientUnits="userSpaceOnUse">
<stop stop-color="#8225C4"/>
<stop offset="0.317708" stop-color="#B516A8"/>
<stop offset="0.625" stop-color="#D80C95"/>
<stop offset="1" stop-color="#F50081"/>
</linearGradient>
</defs>
</svg>
