<svg width="650" height="400" viewBox="0 0 650 400" fill="none" xmlns="http://www.w3.org/2000/svg">
<path fill-rule="evenodd" clip-rule="evenodd" d="M245.761 92.3519C315.419 64.4218 381.488 132.575 454.186 151.215C557.736 177.765 693.927 134.496 754.273 222.733C816.575 313.829 766.416 439.378 719.623 539.33C673.742 637.331 606.063 735.061 501.457 762.751C402.735 788.884 314.043 714.032 221.321 671.236C130.419 629.28 -3.75398 617.755 -24.7771 519.87C-45.9236 421.409 83.103 363.51 136.954 278.412C176.893 215.298 176.436 120.148 245.761 92.3519Z" fill="url(#paint0_linear_30_210)"/>
<g opacity="0.24">
<path fill-rule="evenodd" clip-rule="evenodd" d="M32.1582 341.04C66.5565 262.814 174.603 265.597 248.584 222.826C353.962 161.903 430.251 18.1823 549.647 41.8596C672.912 66.304 732.163 208.388 773.754 326.971C814.533 443.24 837.366 576.66 774.353 682.54C714.884 782.463 583.099 792.26 473.582 831.342C366.214 869.656 247.903 967.202 152.801 904.341C57.1409 841.111 115.944 691.201 91.9297 579.075C74.1194 495.916 -2.07525 418.891 32.1582 341.04Z" fill="url(#paint1_linear_30_210)"/>
</g>
<defs>
<linearGradient id="paint0_linear_30_210" x1="-175.974" y1="450.074" x2="722.907" y2="-146.99" gradientUnits="userSpaceOnUse">
<stop stop-color="#8225C4"/>
<stop offset="0.317708" stop-color="#B516A8"/>
<stop offset="0.625" stop-color="#D80C95"/>
<stop offset="1" stop-color="#F50081"/>
</linearGradient>
<linearGradient id="paint1_linear_30_210" x1="-147.172" y1="489.234" x2="729.441" y2="-74.4645" gradientUnits="userSpaceOnUse">
<stop stop-color="#8225C4"/>
<stop offset="0.317708" stop-color="#B516A8"/>
<stop offset="0.625" stop-color="#D80C95"/>
<stop offset="1" stop-color="#F50081"/>
</linearGradient>
</defs>
</svg>
