<svg width="1920" height="432" viewBox="0 0 1920 432" fill="none" xmlns="http://www.w3.org/2000/svg">
<g opacity="0.48">
<path d="M0 291.482L300.156 218.506L572.793 268.105L852.565 178.46L1149.66 218.506L1391.21 138.618L1574.16 153.864L1708.7 53.242L1884.51 44.9077L1919.16 1" stroke="url(#paint0_linear_30_82)"/>
<path d="M0.837402 431L300.993 397.319L573.631 420.211L853.402 378.836L1150.5 397.319L1392.05 360.447L1575 367.484L1709.53 321.043L1885.35 317.196L1920 296.931" stroke="url(#paint1_linear_30_82)"/>
<path d="M0.837402 298.567L300.993 227.37L573.631 275.76L853.402 188.302L1150.5 227.37L1392.05 149.431L1575 164.305L1709.53 66.1375L1885.35 58.0064L1920 15.1697" stroke="url(#paint2_linear_30_82)"/>
<path d="M0.837402 305.107L300.993 235.827L573.631 282.914L853.402 197.81L1150.5 235.827L1392.05 159.987L1575 174.46L1709.53 78.9354L1885.35 71.0233L1920 29.3398" stroke="url(#paint3_linear_30_82)"/>
<path d="M0.837402 311.647L300.993 244.284L573.631 290.068L853.402 207.319L1150.5 244.284L1392.05 170.542L1575 184.615L1709.53 91.7329L1885.35 84.0397L1920 43.5095" stroke="url(#paint4_linear_30_82)"/>
<path d="M0.837402 318.187L300.993 252.604L573.631 297.178L853.402 216.616L1150.5 252.604L1392.05 180.81L1575 194.511L1709.53 104.084L1885.35 96.5938L1920 57.1345" stroke="url(#paint5_linear_30_82)"/>
<path d="M0.837402 324.726L300.993 261.06L573.631 304.332L853.402 226.124L1150.5 261.06L1392.05 191.365L1575 204.665L1709.53 116.881L1885.35 109.61L1920 71.304" stroke="url(#paint6_linear_30_82)"/>
<path d="M0.837402 331.267L300.993 269.518L573.631 311.486L853.402 235.633L1150.5 269.518L1392.05 201.92L1575 214.821L1709.53 129.679L1885.35 122.627L1920 85.4744" stroke="url(#paint7_linear_30_82)"/>
<path d="M0.837402 338.351L300.993 278.382L573.631 319.141L853.402 245.474L1150.5 278.382L1392.05 212.734L1575 225.262L1709.53 142.575L1885.35 135.726L1920 99.644" stroke="url(#paint8_linear_30_82)"/>
<path d="M0.837402 344.891L300.993 286.839L573.631 326.295L853.402 254.983L1150.5 286.839L1392.05 223.288L1575 235.416L1709.53 155.372L1885.35 148.742L1920 113.814" stroke="url(#paint9_linear_30_82)"/>
<path d="M0.837402 351.431L300.993 295.295L573.631 333.449L853.402 264.491L1150.5 295.295L1392.05 233.843L1575 245.571L1709.53 168.17L1885.35 161.759L1920 127.983" stroke="url(#paint10_linear_30_82)"/>
<path d="M0.837402 357.971L300.993 303.615L573.631 340.559L853.402 273.788L1150.5 303.615L1392.05 244.112L1575 255.467L1709.53 180.52L1885.35 174.312L1920 141.608" stroke="url(#paint11_linear_30_82)"/>
<path d="M0.837402 364.511L300.993 312.072L573.631 347.713L853.402 283.297L1150.5 312.072L1392.05 254.667L1575 265.622L1709.53 193.318L1885.35 187.329L1920 155.778" stroke="url(#paint12_linear_30_82)"/>
<path d="M0.837402 371.051L300.993 320.529L573.631 354.867L853.402 292.805L1150.5 320.529L1392.05 265.222L1575 275.777L1709.53 206.116L1885.35 200.346L1920 169.948" stroke="url(#paint13_linear_30_82)"/>
<path d="M0.837402 378.136L300.993 329.394L573.631 362.522L853.402 302.647L1150.5 329.394L1392.05 276.035L1575 286.218L1709.53 219.011L1885.35 213.445L1920 184.118" stroke="url(#paint14_linear_30_82)"/>
<path d="M0.837402 384.676L300.993 337.851L573.631 369.676L853.402 312.156L1150.5 337.851L1392.05 286.591L1575 296.373L1709.53 231.809L1885.35 226.461L1920 198.288" stroke="url(#paint15_linear_30_82)"/>
<path d="M0.837402 391.216L300.993 346.307L573.631 376.83L853.402 321.664L1150.5 346.307L1392.05 297.146L1575 306.528L1709.53 244.607L1885.35 239.478L1920 212.458" stroke="url(#paint16_linear_30_82)"/>
<path d="M0.837402 397.756L300.993 354.627L573.631 383.94L853.402 330.96L1150.5 354.627L1392.05 307.414L1575 316.424L1709.53 256.957L1885.35 252.032L1920 226.083" stroke="url(#paint17_linear_30_82)"/>
<path d="M0.837402 404.295L300.993 363.084L573.631 391.094L853.402 340.469L1150.5 363.084L1392.05 317.969L1575 326.579L1709.53 269.755L1885.35 265.048L1920 240.252" stroke="url(#paint18_linear_30_82)"/>
<path d="M0.837402 410.836L300.993 371.541L573.631 398.248L853.402 349.978L1150.5 371.541L1392.05 328.525L1575 336.734L1709.53 282.553L1885.35 278.065L1920 254.423" stroke="url(#paint19_linear_30_82)"/>
<path d="M0.837402 417.92L300.993 380.405L573.631 405.903L853.402 359.819L1150.5 380.405L1392.05 339.338L1575 347.175L1709.53 295.448L1885.35 291.164L1920 268.592" stroke="url(#paint20_linear_30_82)"/>
<path d="M0.837402 424.46L300.993 388.862L573.631 413.057L853.402 369.328L1150.5 388.862L1392.05 349.892L1575 357.329L1709.53 308.246L1885.35 304.18L1920 282.762" stroke="url(#paint21_linear_30_82)"/>
</g>
<defs>
<linearGradient id="paint0_linear_30_82" x1="-263.087" y1="75.3418" x2="698.71" y2="-1152.34" gradientUnits="userSpaceOnUse">
<stop stop-color="#8225C4"/>
<stop offset="0.317708" stop-color="#B516A8"/>
<stop offset="0.625" stop-color="#D80C95"/>
<stop offset="1" stop-color="#F50081"/>
</linearGradient>
<linearGradient id="paint1_linear_30_82" x1="-262.249" y1="331.243" x2="30.1484" y2="-477.421" gradientUnits="userSpaceOnUse">
<stop stop-color="#8225C4"/>
<stop offset="0.317708" stop-color="#B516A8"/>
<stop offset="0.625" stop-color="#D80C95"/>
<stop offset="1" stop-color="#F50081"/>
</linearGradient>
<linearGradient id="paint2_linear_30_82" x1="-262.249" y1="87.6983" x2="670.293" y2="-1132.4" gradientUnits="userSpaceOnUse">
<stop stop-color="#8225C4"/>
<stop offset="0.317708" stop-color="#B516A8"/>
<stop offset="0.625" stop-color="#D80C95"/>
<stop offset="1" stop-color="#F50081"/>
</linearGradient>
<linearGradient id="paint3_linear_30_82" x1="-262.249" y1="99.9158" x2="638.398" y2="-1111.05" gradientUnits="userSpaceOnUse">
<stop stop-color="#8225C4"/>
<stop offset="0.317708" stop-color="#B516A8"/>
<stop offset="0.625" stop-color="#D80C95"/>
<stop offset="1" stop-color="#F50081"/>
</linearGradient>
<linearGradient id="paint4_linear_30_82" x1="-262.249" y1="112.133" x2="606.126" y2="-1088.67" gradientUnits="userSpaceOnUse">
<stop stop-color="#8225C4"/>
<stop offset="0.317708" stop-color="#B516A8"/>
<stop offset="0.625" stop-color="#D80C95"/>
<stop offset="1" stop-color="#F50081"/>
</linearGradient>
<linearGradient id="paint5_linear_30_82" x1="-262.249" y1="123.945" x2="575.85" y2="-1066.44" gradientUnits="userSpaceOnUse">
<stop stop-color="#8225C4"/>
<stop offset="0.317708" stop-color="#B516A8"/>
<stop offset="0.625" stop-color="#D80C95"/>
<stop offset="1" stop-color="#F50081"/>
</linearGradient>
<linearGradient id="paint6_linear_30_82" x1="-262.249" y1="136.161" x2="542.946" y2="-1041.93" gradientUnits="userSpaceOnUse">
<stop stop-color="#8225C4"/>
<stop offset="0.317708" stop-color="#B516A8"/>
<stop offset="0.625" stop-color="#D80C95"/>
<stop offset="1" stop-color="#F50081"/>
</linearGradient>
<linearGradient id="paint7_linear_30_82" x1="-262.249" y1="148.379" x2="509.769" y2="-1016.23" gradientUnits="userSpaceOnUse">
<stop stop-color="#8225C4"/>
<stop offset="0.317708" stop-color="#B516A8"/>
<stop offset="0.625" stop-color="#D80C95"/>
<stop offset="1" stop-color="#F50081"/>
</linearGradient>
<linearGradient id="paint8_linear_30_82" x1="-262.249" y1="160.735" x2="478.758" y2="-990.27" gradientUnits="userSpaceOnUse">
<stop stop-color="#8225C4"/>
<stop offset="0.317708" stop-color="#B516A8"/>
<stop offset="0.625" stop-color="#D80C95"/>
<stop offset="1" stop-color="#F50081"/>
</linearGradient>
<linearGradient id="paint9_linear_30_82" x1="-262.249" y1="172.952" x2="445.184" y2="-962.186" gradientUnits="userSpaceOnUse">
<stop stop-color="#8225C4"/>
<stop offset="0.317708" stop-color="#B516A8"/>
<stop offset="0.625" stop-color="#D80C95"/>
<stop offset="1" stop-color="#F50081"/>
</linearGradient>
<linearGradient id="paint10_linear_30_82" x1="-262.249" y1="185.169" x2="411.479" y2="-932.8" gradientUnits="userSpaceOnUse">
<stop stop-color="#8225C4"/>
<stop offset="0.317708" stop-color="#B516A8"/>
<stop offset="0.625" stop-color="#D80C95"/>
<stop offset="1" stop-color="#F50081"/>
</linearGradient>
<linearGradient id="paint11_linear_30_82" x1="-262.249" y1="196.981" x2="380.112" y2="-903.844" gradientUnits="userSpaceOnUse">
<stop stop-color="#8225C4"/>
<stop offset="0.317708" stop-color="#B516A8"/>
<stop offset="0.625" stop-color="#D80C95"/>
<stop offset="1" stop-color="#F50081"/>
</linearGradient>
<linearGradient id="paint12_linear_30_82" x1="-262.249" y1="209.198" x2="346.317" y2="-871.832" gradientUnits="userSpaceOnUse">
<stop stop-color="#8225C4"/>
<stop offset="0.317708" stop-color="#B516A8"/>
<stop offset="0.625" stop-color="#D80C95"/>
<stop offset="1" stop-color="#F50081"/>
</linearGradient>
<linearGradient id="paint13_linear_30_82" x1="-262.249" y1="221.416" x2="312.567" y2="-838.404" gradientUnits="userSpaceOnUse">
<stop stop-color="#8225C4"/>
<stop offset="0.317708" stop-color="#B516A8"/>
<stop offset="0.625" stop-color="#D80C95"/>
<stop offset="1" stop-color="#F50081"/>
</linearGradient>
<linearGradient id="paint14_linear_30_82" x1="-262.249" y1="233.772" x2="281.331" y2="-805.054" gradientUnits="userSpaceOnUse">
<stop stop-color="#8225C4"/>
<stop offset="0.317708" stop-color="#B516A8"/>
<stop offset="0.625" stop-color="#D80C95"/>
<stop offset="1" stop-color="#F50081"/>
</linearGradient>
<linearGradient id="paint15_linear_30_82" x1="-262.249" y1="245.99" x2="247.873" y2="-768.803" gradientUnits="userSpaceOnUse">
<stop stop-color="#8225C4"/>
<stop offset="0.317708" stop-color="#B516A8"/>
<stop offset="0.625" stop-color="#D80C95"/>
<stop offset="1" stop-color="#F50081"/>
</linearGradient>
<linearGradient id="paint16_linear_30_82" x1="-262.249" y1="258.207" x2="214.679" y2="-731.048" gradientUnits="userSpaceOnUse">
<stop stop-color="#8225C4"/>
<stop offset="0.317708" stop-color="#B516A8"/>
<stop offset="0.625" stop-color="#D80C95"/>
<stop offset="1" stop-color="#F50081"/>
</linearGradient>
<linearGradient id="paint17_linear_30_82" x1="-262.249" y1="270.018" x2="184.164" y2="-694.157" gradientUnits="userSpaceOnUse">
<stop stop-color="#8225C4"/>
<stop offset="0.317708" stop-color="#B516A8"/>
<stop offset="0.625" stop-color="#D80C95"/>
<stop offset="1" stop-color="#F50081"/>
</linearGradient>
<linearGradient id="paint18_linear_30_82" x1="-262.249" y1="282.235" x2="151.716" y2="-653.443" gradientUnits="userSpaceOnUse">
<stop stop-color="#8225C4"/>
<stop offset="0.317708" stop-color="#B516A8"/>
<stop offset="0.625" stop-color="#D80C95"/>
<stop offset="1" stop-color="#F50081"/>
</linearGradient>
<linearGradient id="paint19_linear_30_82" x1="-262.249" y1="294.453" x2="119.785" y2="-611.175" gradientUnits="userSpaceOnUse">
<stop stop-color="#8225C4"/>
<stop offset="0.317708" stop-color="#B516A8"/>
<stop offset="0.625" stop-color="#D80C95"/>
<stop offset="1" stop-color="#F50081"/>
</linearGradient>
<linearGradient id="paint20_linear_30_82" x1="-262.249" y1="306.809" x2="90.6805" y2="-569.519" gradientUnits="userSpaceOnUse">
<stop stop-color="#8225C4"/>
<stop offset="0.317708" stop-color="#B516A8"/>
<stop offset="0.625" stop-color="#D80C95"/>
<stop offset="1" stop-color="#F50081"/>
</linearGradient>
<linearGradient id="paint21_linear_30_82" x1="-262.249" y1="319.026" x2="60.0147" y2="-524.246" gradientUnits="userSpaceOnUse">
<stop stop-color="#8225C4"/>
<stop offset="0.317708" stop-color="#B516A8"/>
<stop offset="0.625" stop-color="#D80C95"/>
<stop offset="1" stop-color="#F50081"/>
</linearGradient>
</defs>
</svg>
