<svg width="1366" height="432" viewBox="0 0 1366 432" fill="none" xmlns="http://www.w3.org/2000/svg">
<g opacity="0.48">
<path d="M0 291.482L213.548 218.506L407.518 268.105L606.564 178.46L817.937 218.506L989.791 138.618L1119.95 153.864L1215.67 53.242L1340.75 44.9077L1365.4 1" stroke="url(#paint0_linear_51_22)"/>
<path d="M0.595764 431L214.144 397.319L408.114 420.211L607.16 378.836L818.533 397.319L990.387 360.447L1120.55 367.484L1216.26 321.043L1341.35 317.196L1366 296.931" stroke="url(#paint1_linear_51_22)"/>
<path d="M0.595764 298.567L214.144 227.37L408.114 275.76L607.16 188.302L818.533 227.37L990.387 149.431L1120.55 164.305L1216.26 66.1375L1341.35 58.0064L1366 15.1697" stroke="url(#paint2_linear_51_22)"/>
<path d="M0.595764 305.107L214.144 235.827L408.114 282.914L607.16 197.81L818.533 235.827L990.387 159.987L1120.55 174.46L1216.26 78.9354L1341.35 71.0233L1366 29.3398" stroke="url(#paint3_linear_51_22)"/>
<path d="M0.595764 311.647L214.144 244.284L408.114 290.068L607.16 207.319L818.533 244.284L990.387 170.542L1120.55 184.615L1216.26 91.7329L1341.35 84.0397L1366 43.5095" stroke="url(#paint4_linear_51_22)"/>
<path d="M0.595764 318.187L214.144 252.604L408.114 297.178L607.16 216.616L818.533 252.604L990.387 180.81L1120.55 194.511L1216.26 104.084L1341.35 96.5938L1366 57.1345" stroke="url(#paint5_linear_51_22)"/>
<path d="M0.595764 324.726L214.144 261.06L408.114 304.332L607.16 226.124L818.533 261.06L990.387 191.365L1120.55 204.665L1216.26 116.881L1341.35 109.61L1366 71.304" stroke="url(#paint6_linear_51_22)"/>
<path d="M0.595764 331.267L214.144 269.518L408.114 311.486L607.16 235.633L818.533 269.518L990.387 201.92L1120.55 214.821L1216.26 129.679L1341.35 122.627L1366 85.4744" stroke="url(#paint7_linear_51_22)"/>
<path d="M0.595764 338.351L214.144 278.382L408.114 319.141L607.16 245.474L818.533 278.382L990.387 212.734L1120.55 225.262L1216.26 142.575L1341.35 135.726L1366 99.644" stroke="url(#paint8_linear_51_22)"/>
<path d="M0.595764 344.891L214.144 286.839L408.114 326.295L607.16 254.983L818.533 286.839L990.387 223.288L1120.55 235.416L1216.26 155.372L1341.35 148.742L1366 113.814" stroke="url(#paint9_linear_51_22)"/>
<path d="M0.595764 351.431L214.144 295.295L408.114 333.449L607.16 264.491L818.533 295.295L990.387 233.843L1120.55 245.571L1216.26 168.17L1341.35 161.759L1366 127.983" stroke="url(#paint10_linear_51_22)"/>
<path d="M0.595764 357.971L214.144 303.615L408.114 340.559L607.16 273.788L818.533 303.615L990.387 244.112L1120.55 255.467L1216.26 180.52L1341.35 174.312L1366 141.608" stroke="url(#paint11_linear_51_22)"/>
<path d="M0.595764 364.511L214.144 312.072L408.114 347.713L607.16 283.297L818.533 312.072L990.387 254.667L1120.55 265.622L1216.26 193.318L1341.35 187.329L1366 155.778" stroke="url(#paint12_linear_51_22)"/>
<path d="M0.595764 371.051L214.144 320.529L408.114 354.867L607.16 292.805L818.533 320.529L990.387 265.222L1120.55 275.777L1216.26 206.116L1341.35 200.346L1366 169.948" stroke="url(#paint13_linear_51_22)"/>
<path d="M0.595764 378.136L214.144 329.394L408.114 362.522L607.16 302.647L818.533 329.394L990.387 276.035L1120.55 286.218L1216.26 219.011L1341.35 213.445L1366 184.118" stroke="url(#paint14_linear_51_22)"/>
<path d="M0.595764 384.676L214.144 337.851L408.114 369.676L607.16 312.156L818.533 337.851L990.387 286.591L1120.55 296.373L1216.26 231.809L1341.35 226.461L1366 198.288" stroke="url(#paint15_linear_51_22)"/>
<path d="M0.595764 391.216L214.144 346.307L408.114 376.83L607.16 321.664L818.533 346.307L990.387 297.146L1120.55 306.528L1216.26 244.607L1341.35 239.478L1366 212.458" stroke="url(#paint16_linear_51_22)"/>
<path d="M0.595764 397.756L214.144 354.627L408.114 383.94L607.16 330.96L818.533 354.627L990.387 307.414L1120.55 316.424L1216.26 256.957L1341.35 252.032L1366 226.083" stroke="url(#paint17_linear_51_22)"/>
<path d="M0.595764 404.295L214.144 363.084L408.114 391.094L607.16 340.469L818.533 363.084L990.387 317.969L1120.55 326.579L1216.26 269.755L1341.35 265.048L1366 240.252" stroke="url(#paint18_linear_51_22)"/>
<path d="M0.595764 410.836L214.144 371.541L408.114 398.248L607.16 349.978L818.533 371.541L990.387 328.525L1120.55 336.734L1216.26 282.553L1341.35 278.065L1366 254.423" stroke="url(#paint19_linear_51_22)"/>
<path d="M0.595764 417.92L214.144 380.405L408.114 405.903L607.16 359.819L818.533 380.405L990.387 339.338L1120.55 347.175L1216.26 295.448L1341.35 291.164L1366 268.592" stroke="url(#paint20_linear_51_22)"/>
<path d="M0.595764 424.46L214.144 388.862L408.114 413.057L607.16 369.328L818.533 388.862L990.387 349.892L1120.55 357.329L1216.26 308.246L1341.35 304.18L1366 282.762" stroke="url(#paint21_linear_51_22)"/>
</g>
<defs>
<linearGradient id="paint0_linear_51_22" x1="-187.175" y1="75.3418" x2="798.832" y2="-820.088" gradientUnits="userSpaceOnUse">
<stop stop-color="#8225C4"/>
<stop offset="0.317708" stop-color="#B516A8"/>
<stop offset="0.625" stop-color="#D80C95"/>
<stop offset="1" stop-color="#F50081"/>
</linearGradient>
<linearGradient id="paint1_linear_51_22" x1="-186.579" y1="331.243" x2="182.743" y2="-395.447" gradientUnits="userSpaceOnUse">
<stop stop-color="#8225C4"/>
<stop offset="0.317708" stop-color="#B516A8"/>
<stop offset="0.625" stop-color="#D80C95"/>
<stop offset="1" stop-color="#F50081"/>
</linearGradient>
<linearGradient id="paint2_linear_51_22" x1="-186.579" y1="87.6983" x2="777.372" y2="-809.586" gradientUnits="userSpaceOnUse">
<stop stop-color="#8225C4"/>
<stop offset="0.317708" stop-color="#B516A8"/>
<stop offset="0.625" stop-color="#D80C95"/>
<stop offset="1" stop-color="#F50081"/>
</linearGradient>
<linearGradient id="paint3_linear_51_22" x1="-186.579" y1="99.9158" x2="752.904" y2="-798.789" gradientUnits="userSpaceOnUse">
<stop stop-color="#8225C4"/>
<stop offset="0.317708" stop-color="#B516A8"/>
<stop offset="0.625" stop-color="#D80C95"/>
<stop offset="1" stop-color="#F50081"/>
</linearGradient>
<linearGradient id="paint4_linear_51_22" x1="-186.579" y1="112.133" x2="727.688" y2="-787.337" gradientUnits="userSpaceOnUse">
<stop stop-color="#8225C4"/>
<stop offset="0.317708" stop-color="#B516A8"/>
<stop offset="0.625" stop-color="#D80C95"/>
<stop offset="1" stop-color="#F50081"/>
</linearGradient>
<linearGradient id="paint5_linear_51_22" x1="-186.579" y1="123.945" x2="703.6" y2="-775.596" gradientUnits="userSpaceOnUse">
<stop stop-color="#8225C4"/>
<stop offset="0.317708" stop-color="#B516A8"/>
<stop offset="0.625" stop-color="#D80C95"/>
<stop offset="1" stop-color="#F50081"/>
</linearGradient>
<linearGradient id="paint6_linear_51_22" x1="-186.579" y1="136.161" x2="676.935" y2="-762.705" gradientUnits="userSpaceOnUse">
<stop stop-color="#8225C4"/>
<stop offset="0.317708" stop-color="#B516A8"/>
<stop offset="0.625" stop-color="#D80C95"/>
<stop offset="1" stop-color="#F50081"/>
</linearGradient>
<linearGradient id="paint7_linear_51_22" x1="-186.579" y1="148.379" x2="649.521" y2="-748.968" gradientUnits="userSpaceOnUse">
<stop stop-color="#8225C4"/>
<stop offset="0.317708" stop-color="#B516A8"/>
<stop offset="0.625" stop-color="#D80C95"/>
<stop offset="1" stop-color="#F50081"/>
</linearGradient>
<linearGradient id="paint8_linear_51_22" x1="-186.579" y1="160.735" x2="623.401" y2="-734.38" gradientUnits="userSpaceOnUse">
<stop stop-color="#8225C4"/>
<stop offset="0.317708" stop-color="#B516A8"/>
<stop offset="0.625" stop-color="#D80C95"/>
<stop offset="1" stop-color="#F50081"/>
</linearGradient>
<linearGradient id="paint9_linear_51_22" x1="-186.579" y1="172.952" x2="594.571" y2="-718.807" gradientUnits="userSpaceOnUse">
<stop stop-color="#8225C4"/>
<stop offset="0.317708" stop-color="#B516A8"/>
<stop offset="0.625" stop-color="#D80C95"/>
<stop offset="1" stop-color="#F50081"/>
</linearGradient>
<linearGradient id="paint10_linear_51_22" x1="-186.579" y1="185.169" x2="565.032" y2="-702.166" gradientUnits="userSpaceOnUse">
<stop stop-color="#8225C4"/>
<stop offset="0.317708" stop-color="#B516A8"/>
<stop offset="0.625" stop-color="#D80C95"/>
<stop offset="1" stop-color="#F50081"/>
</linearGradient>
<linearGradient id="paint11_linear_51_22" x1="-186.579" y1="196.981" x2="536.989" y2="-685.22" gradientUnits="userSpaceOnUse">
<stop stop-color="#8225C4"/>
<stop offset="0.317708" stop-color="#B516A8"/>
<stop offset="0.625" stop-color="#D80C95"/>
<stop offset="1" stop-color="#F50081"/>
</linearGradient>
<linearGradient id="paint12_linear_51_22" x1="-186.579" y1="209.198" x2="506.159" y2="-666.287" gradientUnits="userSpaceOnUse">
<stop stop-color="#8225C4"/>
<stop offset="0.317708" stop-color="#B516A8"/>
<stop offset="0.625" stop-color="#D80C95"/>
<stop offset="1" stop-color="#F50081"/>
</linearGradient>
<linearGradient id="paint13_linear_51_22" x1="-186.579" y1="221.416" x2="474.714" y2="-646.039" gradientUnits="userSpaceOnUse">
<stop stop-color="#8225C4"/>
<stop offset="0.317708" stop-color="#B516A8"/>
<stop offset="0.625" stop-color="#D80C95"/>
<stop offset="1" stop-color="#F50081"/>
</linearGradient>
<linearGradient id="paint14_linear_51_22" x1="-186.579" y1="233.772" x2="445.009" y2="-624.969" gradientUnits="userSpaceOnUse">
<stop stop-color="#8225C4"/>
<stop offset="0.317708" stop-color="#B516A8"/>
<stop offset="0.625" stop-color="#D80C95"/>
<stop offset="1" stop-color="#F50081"/>
</linearGradient>
<linearGradient id="paint15_linear_51_22" x1="-186.579" y1="245.99" x2="412.526" y2="-601.932" gradientUnits="userSpaceOnUse">
<stop stop-color="#8225C4"/>
<stop offset="0.317708" stop-color="#B516A8"/>
<stop offset="0.625" stop-color="#D80C95"/>
<stop offset="1" stop-color="#F50081"/>
</linearGradient>
<linearGradient id="paint16_linear_51_22" x1="-186.579" y1="258.207" x2="379.6" y2="-577.317" gradientUnits="userSpaceOnUse">
<stop stop-color="#8225C4"/>
<stop offset="0.317708" stop-color="#B516A8"/>
<stop offset="0.625" stop-color="#D80C95"/>
<stop offset="1" stop-color="#F50081"/>
</linearGradient>
<linearGradient id="paint17_linear_51_22" x1="-186.579" y1="270.018" x2="348.697" y2="-552.501" gradientUnits="userSpaceOnUse">
<stop stop-color="#8225C4"/>
<stop offset="0.317708" stop-color="#B516A8"/>
<stop offset="0.625" stop-color="#D80C95"/>
<stop offset="1" stop-color="#F50081"/>
</linearGradient>
<linearGradient id="paint18_linear_51_22" x1="-186.579" y1="282.235" x2="315.148" y2="-524.59" gradientUnits="userSpaceOnUse">
<stop stop-color="#8225C4"/>
<stop offset="0.317708" stop-color="#B516A8"/>
<stop offset="0.625" stop-color="#D80C95"/>
<stop offset="1" stop-color="#F50081"/>
</linearGradient>
<linearGradient id="paint19_linear_51_22" x1="-186.579" y1="294.453" x2="281.419" y2="-494.845" gradientUnits="userSpaceOnUse">
<stop stop-color="#8225C4"/>
<stop offset="0.317708" stop-color="#B516A8"/>
<stop offset="0.625" stop-color="#D80C95"/>
<stop offset="1" stop-color="#F50081"/>
</linearGradient>
<linearGradient id="paint20_linear_51_22" x1="-186.579" y1="306.809" x2="250.038" y2="-464.5" gradientUnits="userSpaceOnUse">
<stop stop-color="#8225C4"/>
<stop offset="0.317708" stop-color="#B516A8"/>
<stop offset="0.625" stop-color="#D80C95"/>
<stop offset="1" stop-color="#F50081"/>
</linearGradient>
<linearGradient id="paint21_linear_51_22" x1="-186.579" y1="319.026" x2="216.295" y2="-430.998" gradientUnits="userSpaceOnUse">
<stop stop-color="#8225C4"/>
<stop offset="0.317708" stop-color="#B516A8"/>
<stop offset="0.625" stop-color="#D80C95"/>
<stop offset="1" stop-color="#F50081"/>
</linearGradient>
</defs>
</svg>
